<?xml version="1.0" standalone="no"?>
<!DOCTYPE svg PUBLIC "-//W3C//DTD SVG 1.1//EN" "http://www.w3.org/Graphics/SVG/1.1/DTD/svg11.dtd" >
<svg>
<metadata>
Created by FontForge 20090622 at Wed Mar  5 05:03:11 2014
 By ffonts
1.2, Copyright &#194;&#169; Castcraft Software, Inc. 1990-1993.
</metadata>
<defs>
<font id="AndroclesOpti-Heavy" horiz-adv-x="615" >
  <font-face 
    font-family="AndroclesOpti-Heavy"
    font-weight="500"
    font-stretch="normal"
    units-per-em="1000"
    panose-1="0 0 0 0 0 0 0 0 0 0"
    ascent="763"
    descent="-237"
    x-height="498"
    cap-height="722"
    bbox="-73 -233 1305 1034"
    underline-thickness="55"
    underline-position="-46"
    stemh="146"
    stemv="150"
    unicode-range="U+0020-U+FB02"
  />
<missing-glyph horiz-adv-x="500" 
 />
    <glyph glyph-name=".notdef" horiz-adv-x="500" 
 />
    <glyph glyph-name="space" unicode=" " horiz-adv-x="320" 
 />
    <glyph glyph-name="exclam" unicode="!" horiz-adv-x="385" 
d="M110 221c11 15 16 29 16 46v5l-22 354c-3 46 -6 75 -35 96h247c-29 -21 -33 -50 -36 -96l-21 -354v-5c0 -17 5 -31 16 -46h-165zM97 87c0 53 42 95 95 95s95 -42 95 -95s-43 -95 -95 -95c-53 0 -95 42 -95 95z" />
    <glyph glyph-name="quotedbl" unicode="&#x22;" horiz-adv-x="393" 
d="M70 722h94v-273h-94v273zM229 722h94v-273h-94v273z" />
    <glyph glyph-name="numbersign" unicode="#" horiz-adv-x="864" 
d="M394 715h108l-71 -203h118l72 203h108l-72 -203h138l-36 -98h-137l-41 -118h142l-35 -98h-142l-72 -203h-108l72 203h-119l-73 -203h-107l71 203h-140l37 98h138l42 118h-146l36 98h145zM394 414l-43 -118h123l42 118h-122z" />
    <glyph glyph-name="dollar" unicode="$" horiz-adv-x="504" 
d="M154 -80v79c-21 5 -41 8 -60 8c-16 0 -31 -9 -49 -25v230c38 -34 65 -58 95 -63v208c-67 46 -100 99 -100 168c0 73 39 130 114 163v35c0 15 -10 25 -25 40h124v-61c41 -3 69 -9 86 -9c12 0 26 7 44 18v-193c-43 29 -79 45 -111 45c-33 0 -54 -17 -54 -39
c0 -41 55 -58 142 -115c64 -42 104 -113 104 -187c0 -112 -85 -210 -211 -224v-41c0 -14 9 -28 25 -37h-124zM231 152c39 12 59 33 59 63c0 33 -20 62 -59 87v-150z" />
    <glyph glyph-name="percent" unicode="%" horiz-adv-x="912" 
d="M311 13c-4 -6 -5 -12 -5 -17c0 -3 2 -9 4 -15h-113c13 13 23 28 32 44l372 667c4 6 6 11 6 16c0 2 -2 7 -6 14h111c-16 -20 -23 -32 -25 -36zM40 541c0 101 79 181 182 181c101 0 181 -80 181 -181s-80 -182 -181 -182c-102 0 -182 81 -182 182zM145 543
c0 -41 33 -74 75 -74c41 0 74 32 74 74c0 41 -33 75 -74 75c-42 0 -75 -34 -75 -75zM509 163c0 101 78 182 181 182c101 0 182 -81 182 -182s-81 -182 -182 -182c-102 0 -181 81 -181 182zM614 166c0 -41 32 -74 74 -74c41 0 74 32 74 74c0 41 -33 75 -74 75
c-42 0 -74 -34 -74 -75z" />
    <glyph glyph-name="ampersand" unicode="&#x26;" horiz-adv-x="743" 
d="M673 276h-73c3 -20 5 -37 5 -50c0 -50 -26 -114 -70 -161c-49 -53 -126 -84 -209 -84c-155 0 -286 117 -286 271c0 78 29 140 89 187c-25 34 -36 68 -36 108c0 108 80 188 233 188c22 0 43 -2 64 -2c15 0 30 1 50 12v-220c-33 30 -66 45 -101 45c-50 0 -86 -39 -86 -85
c0 -43 22 -70 68 -86c-65 -9 -109 -64 -109 -125c0 -66 54 -119 122 -119c63 0 118 46 118 105c0 5 0 11 -1 16h-59c-14 0 -27 -8 -38 -23v184h280c15 0 28 7 39 22v-183z" />
    <glyph glyph-name="quoteright" unicode="&#x2019;" horiz-adv-x="370" 
d="M69 476l35 181c3 13 3 23 3 30c0 15 -5 23 -19 35h215l-100 -188c-8 -15 -11 -27 -11 -35s3 -16 10 -23h-133z" />
    <glyph glyph-name="parenleft" unicode="(" horiz-adv-x="402" 
d="M362 -51l-84 -149c-17 54 -67 82 -112 130c-88 94 -126 199 -126 331s38 237 126 331c45 48 95 76 112 130l84 -148c-126 -76 -182 -173 -182 -313s56 -236 182 -312z" />
    <glyph glyph-name="parenright" unicode=")" horiz-adv-x="402" 
d="M40 -51c126 76 182 172 182 312s-56 237 -182 313l84 148c17 -54 67 -82 112 -130c88 -94 126 -199 126 -331s-38 -237 -126 -331c-45 -48 -95 -76 -112 -130z" />
    <glyph glyph-name="asterisk" unicode="*" horiz-adv-x="564" 
d="M281 456l-85 -121l-84 58l95 119l-137 37l32 99l130 -47v140h98v-140l130 46l34 -99l-138 -36l94 -118l-85 -60z" />
    <glyph glyph-name="plus" unicode="+" horiz-adv-x="725" 
d="M313 596h99v-249h243v-97h-243v-250h-99v250h-243v97h243v249z" />
    <glyph glyph-name="comma" unicode="," horiz-adv-x="355" 
d="M50 -112l35 181c3 13 4 23 4 30c0 15 -5 23 -19 35h215l-100 -188c-8 -15 -12 -27 -12 -35s3 -16 10 -23h-133z" />
    <glyph glyph-name="hyphen" unicode="-" horiz-adv-x="391" 
d="M70 326h188c26 0 45 5 63 19v-164h-188c-26 0 -45 -5 -63 -19v164z" />
    <glyph glyph-name="period" unicode="." horiz-adv-x="270" 
d="M40 87c0 53 42 95 95 95s95 -42 95 -95s-43 -95 -95 -95c-53 0 -95 42 -95 95z" />
    <glyph glyph-name="slash" unicode="/" horiz-adv-x="465" 
d="M154 -93h-84l242 834h83z" />
    <glyph glyph-name="zero" unicode="0" 
d="M207 283v-25c0 -29 2 -52 18 -75c20 -27 48 -41 83 -41c36 0 66 16 85 45c15 23 16 48 16 80v22v132v20c0 29 -1 53 -16 74c-20 29 -50 45 -85 45c-70 0 -101 -45 -101 -130v-147zM575 296c0 -69 0 -128 -30 -183c-44 -81 -132 -132 -238 -132c-90 0 -168 38 -219 105
c-46 61 -48 123 -48 197v139c0 72 2 134 48 194c51 67 129 106 219 106c96 0 175 -42 226 -114c39 -56 42 -116 42 -191v-121z" />
    <glyph glyph-name="one" unicode="1" 
d="M380 38c0 -14 7 -27 22 -38h-196c15 11 23 24 23 38v396l-65 -81l-118 91c15 6 24 12 28 17l189 244h139c-15 -11 -22 -24 -22 -38v-629z" />
    <glyph glyph-name="two" unicode="2" 
d="M565 0h-556l343 392c27 31 45 55 45 88c0 48 -40 87 -90 87c-54 0 -92 -41 -92 -93c0 -14 4 -28 10 -43h-198c29 32 19 88 41 149c33 91 119 142 236 142c157 0 263 -103 263 -251c0 -61 -27 -122 -79 -177l-130 -138h169c15 0 27 8 38 23v-179z" />
    <glyph glyph-name="three" unicode="3" 
d="M11 309h177c-1 -17 -1 -27 -1 -32c0 -77 54 -126 115 -126c65 0 113 54 113 123c0 58 -42 106 -117 125c50 10 78 42 78 84s-32 73 -74 73c-40 0 -70 -31 -70 -75c0 -9 1 -19 2 -30h-169c36 31 23 92 50 148c36 77 105 123 190 123c126 0 218 -100 218 -211
c0 -29 -8 -55 -22 -84c55 -41 81 -94 81 -164c0 -154 -119 -282 -278 -282c-103 0 -198 56 -242 143c-36 71 -23 140 -51 185z" />
    <glyph glyph-name="four" unicode="4" 
d="M486 38c0 -14 7 -27 22 -38h-196c15 11 23 24 23 38v93h-240l-99 123c15 6 25 12 29 17l344 434h139c-15 -11 -22 -24 -22 -38v-388h48c14 0 27 7 38 22v-170h-86v-93zM340 276v194l-144 -194h144z" />
    <glyph glyph-name="five" unicode="5" 
d="M6 95l143 144c26 -63 62 -94 117 -94c68 0 115 46 115 108c0 67 -51 118 -128 118c-56 0 -102 -22 -148 -66l43 399h343v-161c-11 15 -23 23 -37 23h-185l-8 -72c30 5 54 8 71 8c120 0 225 -101 225 -249c0 -150 -124 -272 -293 -272c-69 0 -124 17 -168 55
c-31 26 -45 59 -90 59z" />
    <glyph glyph-name="six" unicode="6" 
d="M246 704h263c-19 -11 -35 -25 -47 -41l-141 -186c17 2 31 4 44 4c108 0 212 -101 212 -233c0 -153 -114 -267 -274 -267c-154 0 -267 124 -267 262c0 57 19 112 57 169l157 236c5 7 8 17 8 25c0 7 -4 17 -12 31zM204 246c0 -57 45 -103 103 -103c57 0 103 45 103 103
s-46 103 -103 103c-58 0 -103 -46 -103 -103z" />
    <glyph glyph-name="seven" unicode="7" 
d="M56 704h512l-252 -641c-2 -6 -4 -14 -4 -21c0 -16 6 -27 19 -42h-248c24 13 39 29 48 50l223 514h-260c-14 0 -27 -8 -38 -23v163z" />
    <glyph glyph-name="eight" unicode="8" 
d="M204 244c0 -57 45 -101 101 -101c57 0 102 44 102 101s-45 101 -102 101c-56 0 -101 -44 -101 -101zM372 519c0 37 -29 67 -66 67s-67 -29 -67 -67c0 -37 30 -66 67 -66s66 29 66 66zM133 431c-24 33 -36 61 -36 95c0 102 89 196 208 196c120 0 209 -95 209 -198
c0 -34 -12 -61 -36 -93c65 -48 97 -109 97 -189c0 -144 -108 -261 -270 -261c-161 0 -269 116 -269 261c0 79 32 142 97 189z" />
    <glyph glyph-name="nine" unicode="9" 
d="M361 0h-263c19 11 34 25 46 41l142 185c-17 -2 -31 -3 -44 -3c-108 0 -212 101 -212 233c0 153 113 266 273 266c154 0 268 -123 268 -261c0 -57 -19 -112 -57 -169l-158 -236c-5 -7 -7 -17 -7 -25c0 -7 4 -17 12 -31zM403 458c0 57 -45 103 -103 103
c-57 0 -103 -46 -103 -103s46 -103 103 -103c58 0 103 46 103 103z" />
    <glyph glyph-name="colon" unicode=":" horiz-adv-x="270" 
d="M40 87c0 53 42 95 95 95s95 -42 95 -95s-43 -95 -95 -95c-53 0 -95 42 -95 95zM40 389c0 53 42 95 95 95s95 -42 95 -95s-43 -95 -95 -95c-53 0 -95 42 -95 95z" />
    <glyph glyph-name="semicolon" unicode=";" horiz-adv-x="277" 
d="M3 -112l35 181c3 13 3 23 3 30c0 15 -5 23 -19 35h215l-100 -188c-5 -10 -14 -20 -14 -36c0 -7 4 -15 12 -22h-132zM40 389c0 53 42 95 95 95s95 -42 95 -95s-43 -95 -95 -95c-53 0 -95 42 -95 95z" />
    <glyph glyph-name="less" unicode="&#x3c;" horiz-adv-x="715" 
d="M645 583v-107l-436 -178l436 -178v-107l-575 237v97z" />
    <glyph glyph-name="equal" unicode="=" horiz-adv-x="725" 
d="M70 452h585v-97h-585v97zM70 242h585v-97h-585v97z" />
    <glyph glyph-name="greater" unicode="&#x3e;" horiz-adv-x="715" 
d="M70 583l575 -236v-97l-575 -237v107l437 178l-437 178v107z" />
    <glyph glyph-name="question" unicode="?" horiz-adv-x="432" 
d="M56 87c0 53 42 95 95 95s95 -42 95 -95s-43 -95 -95 -95c-53 0 -95 42 -95 95zM70 219c8 11 10 21 10 35v149c17 -7 33 -11 50 -11c60 0 100 38 100 89s-40 87 -94 87c-34 0 -64 -14 -96 -43v207c14 -11 25 -14 40 -14c11 0 39 8 82 8c139 0 230 -99 230 -239
c0 -128 -64 -209 -176 -225v-20c0 -5 3 -13 9 -23h-155z" />
    <glyph glyph-name="at" unicode="@" horiz-adv-x="993" 
d="M590 342c-8 53 -38 81 -85 81c-73 0 -138 -91 -138 -206c0 -60 27 -92 77 -92c52 0 103 42 120 111zM566 133c-36 -55 -82 -80 -145 -80c-104 0 -158 58 -158 166c0 158 105 275 236 275c53 0 91 -22 115 -64l26 48h87l-72 -292c-2 -8 -3 -15 -3 -20c0 -22 15 -34 46 -34
c24 0 53 12 79 37c56 52 85 123 85 206c0 152 -128 268 -324 268c-92 0 -171 -22 -236 -66c-110 -74 -172 -189 -172 -322c0 -200 146 -329 371 -329c106 0 209 33 295 93l40 -57c-100 -75 -212 -113 -333 -113c-127 0 -232 33 -312 94c-101 78 -151 180 -151 311
c0 109 35 209 101 290c96 117 233 179 400 179c113 0 212 -32 281 -85c88 -68 131 -155 131 -265c0 -108 -44 -201 -124 -265c-46 -37 -101 -56 -158 -56c-69 0 -104 27 -105 81z" />
    <glyph glyph-name="A" unicode="A" horiz-adv-x="724" 
d="M234 119l-16 -56c-2 -8 -3 -15 -3 -22c0 -13 6 -25 15 -41h-230c18 25 29 44 34 56l242 631c3 8 4 14 4 18c0 5 -1 11 -2 17h170l242 -666c4 -10 15 -29 34 -56h-230c9 15 15 27 15 40c0 6 -2 14 -4 23l-15 56h-256zM293 275h147l-74 243z" />
    <glyph glyph-name="B" unicode="B" horiz-adv-x="586" 
d="M46 0c17 11 24 28 24 38v697c16 -8 30 -12 45 -12c37 0 79 18 125 18c159 0 266 -101 266 -223c0 -43 -8 -74 -38 -105c55 -38 78 -85 78 -158c0 -84 -38 -161 -102 -207c-64 -47 -137 -48 -233 -48h-165zM241 563v-400c6 -1 12 -1 18 -1c70 0 120 53 120 118
c0 61 -31 101 -96 121c43 17 60 41 60 85c0 51 -31 78 -87 78c-5 0 -10 -1 -15 -1z" />
    <glyph glyph-name="C" unicode="C" horiz-adv-x="660" 
d="M590 -20c-17 9 -31 11 -46 11c-24 0 -64 -10 -118 -10c-219 0 -386 164 -386 380c0 124 51 228 147 304c66 52 143 76 233 76c55 0 96 -8 121 -8c13 0 29 2 49 9v-240c-52 47 -98 71 -159 71c-122 0 -216 -91 -216 -211c0 -123 91 -212 221 -212c62 0 106 19 154 64v-234
z" />
    <glyph glyph-name="D" unicode="D" horiz-adv-x="684" 
d="M47 0c15 8 23 27 23 37v697c17 -8 32 -12 45 -12c44 0 95 19 154 19c101 0 187 -41 259 -109c76 -72 116 -164 116 -268c0 -113 -45 -212 -123 -279c-99 -84 -194 -85 -296 -85h-7h-171zM236 565v-402h12c138 0 226 83 226 204c0 111 -83 199 -211 199c-9 0 -18 0 -27 -1
z" />
    <glyph glyph-name="E" unicode="E" horiz-adv-x="549" 
d="M479 0h-432c15 11 23 23 23 38v644c0 16 -8 26 -23 40h432v-184c-11 15 -23 23 -38 23h-203v-120h128c15 0 27 8 38 23v-205c-10 15 -24 23 -38 23h-128v-123h203c15 0 27 8 38 23v-182z" />
    <glyph glyph-name="F" unicode="F" horiz-adv-x="508" 
d="M400 441c15 0 28 8 39 23v-205c-10 15 -24 23 -39 23h-162v-244c0 -15 7 -27 23 -38h-215c15 11 24 24 24 38v644c0 15 -9 25 -24 40h432v-184c-12 15 -24 23 -39 23h-201v-120h162z" />
    <glyph glyph-name="G" unicode="G" horiz-adv-x="765" 
d="M695 450v-300c0 -21 5 -35 18 -49c-39 -13 -66 -35 -90 -52c-65 -46 -130 -68 -207 -68c-101 0 -197 40 -267 112c-70 71 -109 167 -109 272c0 107 44 205 125 280c71 65 156 96 258 96c52 0 91 -7 119 -7c15 0 30 4 47 9v-240c-52 48 -100 71 -163 71
c-125 0 -216 -92 -216 -213c0 -120 87 -211 205 -211c35 0 70 8 110 23v107h-149c-15 0 -28 -8 -39 -23v216c11 -15 24 -23 39 -23h319z" />
    <glyph glyph-name="H" unicode="H" horiz-adv-x="695" 
d="M48 0c15 10 22 24 22 38v644c0 16 -8 26 -22 40h212c-14 -14 -23 -24 -23 -40v-235h221v235c0 16 -8 26 -22 40h212c-14 -14 -23 -24 -23 -40v-644c0 -15 8 -28 23 -38h-212c15 10 22 24 22 38v250h-221v-250c0 -15 8 -28 23 -38h-212z" />
    <glyph glyph-name="I" unicode="I" horiz-adv-x="309" 
d="M47 0c15 11 23 23 23 38v644c0 16 -8 26 -23 40h215c-15 -14 -23 -24 -23 -40v-644c0 -15 8 -27 23 -38h-215z" />
    <glyph glyph-name="J" unicode="J" horiz-adv-x="390" 
d="M149 682c0 19 -15 31 -23 40h214c-15 -14 -23 -24 -23 -40v-439c0 -75 0 -133 -48 -191c-37 -45 -92 -69 -154 -69c-24 0 -42 2 -54 2c-17 0 -33 -1 -55 -15v203c25 -21 49 -32 76 -32c49 0 67 32 67 95v446z" />
    <glyph glyph-name="K" unicode="K" horiz-adv-x="651" 
d="M47 0c15 10 23 23 23 38v644c0 15 -8 26 -23 40h214c-15 -14 -23 -25 -23 -40v-218l125 187c9 14 14 26 14 34c0 9 -5 21 -13 37h263c-26 -23 -41 -43 -52 -57l-214 -276c78 -28 148 -82 198 -179c45 -87 39 -170 93 -210h-219c1 9 1 19 1 27c0 127 -61 206 -196 260
v-249c0 -15 8 -29 23 -38h-214z" />
    <glyph glyph-name="L" unicode="L" horiz-adv-x="478" 
d="M47 0c15 10 23 24 23 38v644c0 16 -9 26 -23 40h214c-15 -14 -23 -24 -23 -40v-523h182c15 0 28 8 38 23v-182h-411z" />
    <glyph glyph-name="M" unicode="M" horiz-adv-x="806" 
d="M-10 0c23 38 37 73 41 102l82 545c2 14 3 25 3 32c0 15 -5 28 -13 43h171l91 -271c11 -34 19 -68 23 -104c4 40 13 73 23 103l92 272h171c-8 -15 -13 -28 -13 -43c0 -7 1 -18 3 -32l81 -545c4 -29 18 -64 41 -102h-215c12 16 16 29 16 45c0 5 0 10 -1 15l-26 232
c-3 31 -5 70 -5 118v31c-12 -52 -26 -98 -42 -140l-124 -322l-126 323c-18 46 -31 93 -41 142v-30c0 -47 -1 -87 -5 -118l-27 -236c-1 -5 -1 -9 -1 -13c0 -17 5 -31 17 -47h-216z" />
    <glyph glyph-name="N" unicode="N" horiz-adv-x="694" 
d="M47 0c15 10 23 23 23 38v644c0 16 -8 26 -23 40h191l169 -300c22 -40 42 -85 60 -134c-8 55 -11 110 -11 166v228c0 16 -8 26 -23 40h214c-15 -14 -23 -24 -23 -40v-644c0 -15 8 -29 23 -38h-191l-169 298c-21 38 -41 82 -60 133c8 -55 11 -110 11 -165v-228
c0 -15 8 -29 23 -38h-214z" />
    <glyph glyph-name="O" unicode="O" horiz-adv-x="840" 
d="M40 361c0 101 41 197 112 268c72 72 167 112 268 112s198 -40 269 -112c71 -71 111 -168 111 -268c0 -88 -31 -173 -87 -241c-72 -88 -178 -139 -293 -139c-102 0 -197 40 -268 112s-112 167 -112 268zM212 361c0 -118 94 -212 208 -212c115 0 208 95 208 212
c0 118 -93 213 -208 213c-114 0 -208 -95 -208 -213z" />
    <glyph glyph-name="P" unicode="P" horiz-adv-x="574" 
d="M46 0c16 8 24 26 24 37v701c15 -7 28 -12 42 -12c28 0 76 15 145 15c170 0 277 -114 277 -261s-110 -261 -265 -261c-10 0 -21 1 -32 2v-184c0 -11 8 -29 24 -37h-215zM237 566v-174c15 -2 27 -3 35 -3c55 0 93 35 93 92c0 54 -38 90 -88 90c-10 0 -24 -2 -40 -5z" />
    <glyph glyph-name="Q" unicode="Q" horiz-adv-x="839" 
d="M566 -44c10 11 16 19 16 26c0 6 -6 16 -17 30c-50 -19 -98 -31 -146 -31c-88 0 -173 32 -241 88c-88 72 -138 180 -138 293c0 88 30 172 86 241c72 88 179 138 293 138c88 0 173 -30 241 -86c88 -72 139 -179 139 -293c0 -92 -35 -185 -98 -253l88 -106
c4 -5 21 -21 52 -47h-275zM295 341h260c-8 -10 -13 -18 -13 -28c0 -7 2 -12 5 -16l44 -53c23 43 36 81 36 122c0 111 -89 204 -206 204s-212 -97 -212 -212c0 -110 97 -205 195 -205c13 0 29 2 46 4l-113 139c-3 4 -17 18 -42 45z" />
    <glyph glyph-name="R" unicode="R" horiz-adv-x="633" 
d="M236 38c0 -10 7 -27 23 -38h-213c16 11 24 28 24 38v697c16 -6 31 -10 47 -10c36 0 83 16 139 16c155 0 249 -104 249 -226c0 -79 -25 -132 -84 -168c79 -23 124 -75 158 -164c32 -83 27 -151 66 -183h-228c10 14 13 26 13 41c0 122 -66 204 -194 242v-245zM236 427
c5 0 9 -1 14 -1c60 0 97 37 97 83c0 42 -33 78 -81 78c-6 0 -16 -1 -30 -3v-157z" />
    <glyph glyph-name="S" unicode="S" horiz-adv-x="491" 
d="M43 -30v251c50 -56 91 -83 143 -83c53 0 94 35 94 87s-39 80 -97 119c-90 60 -143 111 -143 209c0 106 87 188 199 188c29 0 57 -7 83 -7c16 0 29 3 47 12v-205c-40 32 -72 50 -100 50c-31 0 -52 -17 -52 -42c0 -40 56 -60 126 -121c72 -61 108 -124 108 -204
c0 -137 -98 -243 -252 -243c-32 0 -67 5 -102 5c-19 0 -34 -3 -54 -16z" />
    <glyph glyph-name="T" unicode="T" horiz-adv-x="442" 
d="M305 38c0 -15 8 -27 23 -38h-214c15 11 23 23 23 38v521h-94c-15 0 -26 -8 -38 -23v186h432v-186c-12 15 -23 23 -38 23h-94v-521z" />
    <glyph glyph-name="U" unicode="U" horiz-adv-x="657" 
d="M261 722c-14 -14 -23 -24 -23 -40v-414c0 -80 25 -117 88 -117c75 0 93 42 93 128v403c0 16 -8 26 -23 40h214c-15 -15 -23 -25 -23 -40v-395c0 -202 -92 -306 -258 -306c-161 0 -259 105 -259 287v414c0 16 -9 26 -23 40h214z" />
    <glyph glyph-name="V" unicode="V" horiz-adv-x="717" 
d="M278 0l-233 645c-9 26 -25 51 -46 77h238c-12 -16 -19 -29 -19 -44c0 -7 1 -15 4 -23l129 -397l144 397c3 7 3 15 3 23c0 16 -6 28 -18 44h237c-20 -24 -33 -48 -45 -77l-229 -573c-6 -15 -10 -27 -10 -37c0 -9 3 -20 8 -35h-163z" />
    <glyph glyph-name="W" unicode="W" horiz-adv-x="1020" 
d="M279 0l-234 644c-9 25 -24 51 -45 78h237c-12 -16 -18 -29 -18 -44c0 -7 1 -15 4 -23l128 -397l67 185l-72 201c-9 25 -23 51 -45 78h237c-11 -17 -18 -29 -18 -44c0 -7 1 -15 4 -23l128 -397l144 397c3 7 4 14 4 22c0 16 -6 29 -18 45h237c-19 -23 -34 -49 -46 -78
l-228 -572c-6 -16 -10 -27 -10 -37c0 -9 2 -20 7 -35h-163l-78 216l-57 -144c-6 -16 -10 -28 -10 -37s2 -20 7 -35h-162z" />
    <glyph glyph-name="X" unicode="X" horiz-adv-x="668" 
d="M-2 0c28 22 43 45 55 67l184 330l-143 253c-11 20 -30 44 -56 72h245c-11 -14 -17 -24 -17 -37c0 -7 1 -14 4 -20l56 -121l63 121c2 5 3 10 3 16c0 16 -7 26 -19 41h246c-33 -42 -52 -66 -55 -72l-139 -253l185 -331c10 -18 30 -41 60 -66h-265c15 16 22 29 22 46
c0 8 -1 14 -4 21l-89 182l-94 -183c-3 -5 -4 -12 -4 -20c0 -17 6 -30 19 -46h-257z" />
    <glyph glyph-name="Y" unicode="Y" horiz-adv-x="679" 
d="M679 722c-22 -25 -38 -47 -50 -67l-206 -327v-290c0 -14 8 -28 23 -38h-214c15 10 23 23 23 38v290l-208 331c-13 21 -30 41 -48 63h260c-13 -15 -20 -26 -20 -38c0 -8 3 -19 11 -34l89 -171l89 171c8 15 11 27 11 34c0 11 -7 23 -20 38h260z" />
    <glyph glyph-name="Z" unicode="Z" horiz-adv-x="566" 
d="M522 0h-536l298 561h-187c-15 0 -27 -8 -38 -23v184h487l-303 -563h241c15 0 27 8 38 23v-182z" />
    <glyph glyph-name="bracketleft" unicode="[" horiz-adv-x="353" 
d="M190 -39h56c14 0 25 1 37 12v-135h-235c15 15 22 29 22 47v790c0 19 -7 33 -22 47h235v-135c-12 11 -21 13 -36 13h-57v-639z" />
    <glyph glyph-name="backslash" unicode="\" horiz-adv-x="464" 
d="M153 722l242 -834h-83l-242 834h83z" />
    <glyph glyph-name="bracketright" unicode="]" horiz-adv-x="353" 
d="M163 600h-56c-15 0 -25 -2 -37 -13v135h235c-15 -15 -22 -29 -22 -47v-790c0 -19 7 -33 22 -47h-235v135c12 -11 21 -12 36 -12h57v639z" />
    <glyph glyph-name="asciicircum" unicode="^" horiz-adv-x="449" 
d="M70 558l114 181h82l113 -181h-43l-111 91l-111 -91h-44z" />
    <glyph glyph-name="underscore" unicode="_" horiz-adv-x="500" 
d="M-70 -76h500v-100h-500v100z" />
    <glyph glyph-name="quoteleft" unicode="&#x2018;" horiz-adv-x="370" 
d="M301 476h-132c7 7 10 15 10 23s-4 20 -12 35l-100 188h215c-14 -12 -19 -20 -19 -35c0 -7 2 -17 4 -30z" />
    <glyph glyph-name="a" unicode="a" horiz-adv-x="629" 
d="M557 38c0 -14 8 -27 23 -38h-166v41c-32 -38 -76 -56 -133 -56c-135 0 -241 117 -241 261c0 152 115 269 271 269c82 0 129 -27 178 -60c28 -19 54 -39 86 -49c-12 -13 -18 -26 -18 -38v-330zM406 332c-29 28 -57 41 -90 41c-66 0 -117 -49 -117 -120s45 -121 110 -121
c35 0 66 12 97 37v163z" />
    <glyph glyph-name="b" unicode="b" horiz-adv-x="627" 
d="M221 485c33 20 66 30 104 30c144 0 262 -122 262 -267c0 -151 -115 -267 -270 -267c-81 0 -130 26 -179 59c-28 19 -54 40 -86 50c12 13 18 25 18 37v547c0 14 -8 27 -23 38h174v-227zM221 163c29 -28 58 -41 91 -41c66 0 116 48 116 118c0 72 -46 123 -111 123
c-35 0 -66 -12 -96 -37v-163z" />
    <glyph glyph-name="c" unicode="c" horiz-adv-x="465" 
d="M425 177v-196c-19 7 -32 10 -40 10c-17 0 -44 -10 -82 -10c-146 0 -263 110 -263 261c0 156 116 273 258 273c39 0 68 -19 89 -19c8 0 21 3 38 9v-194c-34 33 -69 49 -109 49c-69 0 -119 -48 -119 -114s51 -115 119 -115c37 0 71 16 109 46z" />
    <glyph glyph-name="d" unicode="d" horiz-adv-x="627" 
d="M405 326c-30 25 -61 37 -96 37c-65 0 -110 -51 -110 -123c0 -70 50 -118 116 -118c33 0 61 13 90 41v163zM557 127c0 -12 5 -24 17 -37c-32 -10 -58 -31 -86 -50c-49 -33 -97 -59 -178 -59c-155 0 -270 116 -270 267c0 145 118 267 262 267c38 0 71 -10 104 -30v189
c0 14 -8 27 -23 38h174v-585z" />
    <glyph glyph-name="e" unicode="e" horiz-adv-x="638" 
d="M203 195c25 -59 66 -84 133 -84c44 0 83 11 124 35v-166c-15 6 -28 9 -43 9c-27 0 -62 -8 -103 -8c-154 0 -274 116 -274 273c0 148 112 261 278 261c83 0 149 -30 199 -93c43 -54 66 -136 66 -193c0 -2 6 -14 15 -34h-395zM434 303c-20 59 -62 89 -120 89
c-60 0 -102 -31 -121 -89h241z" />
    <glyph glyph-name="f" unicode="f" horiz-adv-x="325" 
d="M232 38c0 -14 8 -27 23 -38h-196c15 11 22 24 22 38v325h-19c-14 0 -26 -7 -37 -22v157h55c0 7 -1 15 -1 22c0 70 23 120 68 154c58 43 121 27 178 51v-144c-64 0 -93 -12 -93 -55v-28h93v-157c-11 15 -24 22 -38 22h-55v-325z" />
    <glyph glyph-name="g" unicode="g" horiz-adv-x="626" 
d="M405 334c-29 27 -57 40 -90 40c-67 0 -117 -48 -117 -117s45 -118 110 -118c35 0 66 13 97 37v158zM556 72c0 -80 -1 -144 -61 -211c-51 -57 -134 -92 -216 -92c-50 0 -91 18 -123 18c-11 0 -23 -7 -39 -18v192c54 -31 99 -52 151 -52c86 0 139 49 139 132v9
c-29 -32 -72 -49 -128 -49c-134 0 -239 114 -239 253c0 148 114 261 270 261c81 0 130 -26 179 -58c29 -18 53 -39 85 -48c-12 -12 -18 -25 -18 -36v-301z" />
    <glyph glyph-name="h" unicode="h" horiz-adv-x="589" 
d="M221 478c39 23 77 37 116 37c116 0 182 -84 182 -245v-232c0 -14 8 -27 23 -38h-196c15 11 22 24 22 38v227c0 64 -13 99 -70 99c-33 0 -58 -12 -77 -32v-294c0 -14 8 -27 23 -38h-196c15 11 22 24 22 38v637c0 14 -7 27 -22 38h173v-235z" />
    <glyph glyph-name="i" unicode="i" horiz-adv-x="291" 
d="M221 38c0 -14 7 -27 22 -38h-196c15 11 23 24 23 38v422c0 14 -8 27 -23 38h174v-460zM63 634c0 46 36 82 82 82s82 -36 82 -82s-36 -81 -82 -81s-82 35 -82 81z" />
    <glyph glyph-name="j" unicode="j" horiz-adv-x="291" 
d="M221 29c0 -157 -61 -236 -189 -236h-22c-25 0 -42 -1 -63 -26v192c17 -17 31 -25 51 -25c46 0 72 30 72 88v438c0 14 -7 27 -22 38h173v-469zM64 634c0 46 35 82 81 82s82 -36 82 -82s-36 -81 -82 -81s-81 35 -81 81z" />
    <glyph glyph-name="k" unicode="k" horiz-adv-x="550" 
d="M220 38c0 -14 8 -27 23 -38h-196c15 11 23 24 23 38v637c0 14 -8 27 -23 38h173v-344l80 91c4 5 7 12 7 17c0 7 -6 13 -16 21h249c-18 -7 -33 -17 -47 -31l-158 -156c79 -10 123 -57 141 -148c14 -69 -1 -127 56 -163h-195c1 29 2 50 2 62c0 103 -39 156 -119 162v-186z
" />
    <glyph glyph-name="l" unicode="l" horiz-adv-x="291" 
d="M70 675c0 14 -8 27 -23 38h174v-675c0 -14 7 -27 22 -38h-196c15 11 23 24 23 38v637z" />
    <glyph glyph-name="m" unicode="m" horiz-adv-x="887" 
d="M368 265c0 61 -12 99 -75 99c-27 0 -51 -11 -72 -32v-294c0 -14 8 -27 23 -38h-196c15 11 22 24 22 38v330c0 12 -5 25 -17 38c28 9 44 20 55 28c54 38 92 81 179 81c57 0 105 -19 156 -54c45 37 88 54 143 54c68 0 126 -25 169 -66c52 -50 62 -103 62 -179v-232
c0 -14 8 -27 23 -38h-196c15 11 23 24 23 38v227c0 61 -13 99 -76 99c-27 0 -51 -11 -72 -32v-294c0 -14 8 -27 23 -38h-196c15 11 22 24 22 38v227z" />
    <glyph glyph-name="n" unicode="n" horiz-adv-x="613" 
d="M47 0c15 10 23 24 23 38v333c0 12 -6 25 -18 38c27 10 48 19 64 29c43 27 88 77 199 77c146 0 228 -84 228 -243v-234c0 -14 8 -28 23 -38h-196c15 10 23 24 23 38v228c0 67 -20 106 -81 106c-34 0 -66 -14 -91 -38v-296c0 -14 7 -28 22 -38h-196z" />
    <glyph glyph-name="o" unicode="o" horiz-adv-x="624" 
d="M40 247c0 146 120 268 272 268s272 -122 272 -268c0 -147 -121 -266 -272 -266s-272 120 -272 266zM198 247c0 -66 52 -120 114 -120s115 52 115 120c0 67 -51 119 -115 119s-114 -54 -114 -119z" />
    <glyph glyph-name="p" unicode="p" horiz-adv-x="627" 
d="M221 -194c0 -14 7 -26 22 -37h-196c15 11 23 23 23 37v562c0 12 -6 25 -18 38c32 10 58 30 86 49c49 33 98 60 179 60c155 0 270 -116 270 -267c0 -145 -118 -267 -262 -267c-38 0 -71 9 -104 29v-204zM221 332v-163c30 -25 61 -37 96 -37c65 0 111 51 111 123
c0 70 -50 118 -116 118c-33 0 -62 -13 -91 -41z" />
    <glyph glyph-name="q" unicode="q" horiz-adv-x="626" 
d="M556 -194c0 -14 8 -26 23 -37h-196c15 11 23 23 23 37v204c-33 -20 -67 -29 -105 -29c-144 0 -261 122 -261 267c0 151 115 267 270 267c81 0 129 -27 178 -60c28 -19 54 -39 86 -49c-12 -13 -18 -26 -18 -38v-562zM405 332c-29 28 -57 41 -90 41
c-66 0 -116 -48 -116 -118c0 -72 45 -123 110 -123c35 0 66 12 96 37v163z" />
    <glyph glyph-name="r" unicode="r" horiz-adv-x="343" 
d="M221 38c0 -14 7 -27 22 -38h-196c15 11 23 24 23 38v422c0 14 -8 27 -23 38h145v-62c12 35 32 57 64 67c36 11 68 6 87 33v-201c-18 11 -33 17 -52 17c-32 0 -53 -9 -70 -32v-282z" />
    <glyph glyph-name="s" unicode="s" horiz-adv-x="423" 
d="M34 -18v228c46 -62 88 -93 139 -93c24 0 46 19 46 41c0 29 -38 36 -85 63c-63 37 -94 80 -94 144c0 89 66 150 176 150c35 0 63 -7 82 -7c11 0 23 5 38 13v-174c-42 30 -72 47 -96 47c-22 0 -37 -12 -37 -28c0 -29 37 -30 87 -59c60 -35 93 -85 93 -141
c0 -105 -82 -185 -199 -185c-50 0 -88 14 -112 14c-11 0 -24 -5 -38 -13z" />
    <glyph glyph-name="t" unicode="t" horiz-adv-x="291" 
d="M221 38c0 -14 8 -27 23 -38h-196c15 11 22 24 22 38v325h-104l255 282v-147h91v-157c-11 15 -24 22 -38 22h-53v-325z" />
    <glyph glyph-name="u" unicode="u" horiz-adv-x="593" 
d="M546 498c-15 -11 -23 -24 -23 -38v-333c0 -12 6 -24 18 -38c-28 -9 -44 -21 -56 -29c-56 -38 -93 -79 -182 -79c-143 0 -233 83 -233 245v234c0 14 -7 27 -22 38h197c-16 -11 -23 -24 -23 -38v-229c0 -61 13 -99 76 -99c27 0 51 11 72 32v296c0 14 -7 27 -22 38h198z" />
    <glyph glyph-name="v" unicode="v" horiz-adv-x="552" 
d="M553 498c-13 -10 -21 -22 -27 -35l-180 -400c-5 -11 -8 -21 -8 -29c0 -10 5 -20 14 -34h-143l-177 453c-6 16 -18 31 -32 45h203c-8 -12 -13 -23 -13 -35c0 -5 1 -10 3 -15l83 -247l83 247c2 5 3 10 3 15c0 12 -5 23 -13 35h204z" />
    <glyph glyph-name="w" unicode="w" horiz-adv-x="877" 
d="M674 63c-5 -11 -7 -21 -7 -29c0 -10 4 -20 13 -34h-142l-81 221c-9 25 -17 53 -23 85c-10 -49 -18 -79 -21 -88l-56 -155c-5 -14 -8 -24 -8 -30c0 -9 5 -19 14 -33h-143l-190 453c-7 18 -17 32 -31 45h203c-8 -12 -13 -22 -13 -34c0 -5 0 -11 2 -16l63 -188
c8 -23 15 -52 20 -85c4 29 10 57 19 84l64 189c2 5 3 10 3 15c0 12 -5 23 -13 35h181c-8 -12 -13 -23 -13 -35c0 -5 0 -10 2 -15l62 -182c6 -18 13 -47 22 -90c5 33 11 62 20 88l62 184c2 5 3 10 3 15c0 12 -5 23 -13 35h204c-13 -11 -22 -23 -27 -35z" />
    <glyph glyph-name="x" unicode="x" horiz-adv-x="641" 
d="M-1 0c18 14 35 28 49 45l174 218l-171 208c-6 7 -14 17 -30 27h247c-10 -10 -15 -18 -15 -30c0 -4 0 -7 1 -9l61 -97l57 93c3 5 4 10 4 15c0 12 -7 19 -22 28h252c-18 -13 -28 -24 -32 -29l-166 -206l183 -218c5 -6 21 -21 50 -45h-253c10 14 15 23 15 29
c0 10 -3 19 -9 27l-80 107l-70 -107c-6 -10 -9 -19 -9 -26c0 -9 6 -18 16 -30h-252z" />
    <glyph glyph-name="y" unicode="y" horiz-adv-x="561" 
d="M232 -163c-6 -13 -9 -23 -9 -31c0 -10 7 -22 17 -37h-208c25 32 39 53 44 63l128 269l-166 346c-9 18 -22 35 -39 51h220c-11 -12 -18 -21 -18 -33c0 -6 2 -13 5 -21l82 -201l79 203c3 8 5 15 5 20c0 10 -6 20 -16 32h205c-15 -15 -24 -30 -31 -45z" />
    <glyph glyph-name="z" unicode="z" horiz-adv-x="531" 
d="M487 0h-496l273 363h-154c-14 0 -27 -7 -38 -22v157h448l-271 -364h200c14 0 27 8 38 23v-157z" />
    <glyph glyph-name="braceleft" unicode="{" horiz-adv-x="494" 
d="M424 721v-102c-8 0 -16 1 -23 1c-72 0 -84 -25 -84 -98v-117c0 -88 -18 -127 -101 -146c83 -19 101 -57 101 -145v-118c0 -73 12 -97 84 -97c7 0 15 1 23 1v-102c-13 0 -25 -1 -37 -1c-60 0 -104 6 -137 24c-47 27 -51 71 -51 142v123c0 88 -29 123 -109 123
c-6 0 -13 -1 -20 -1v102c7 0 14 -1 20 -1c80 0 109 36 109 124v122c0 71 4 116 51 143c33 18 77 24 137 24c12 0 24 -1 37 -1z" />
    <glyph glyph-name="bar" unicode="|" horiz-adv-x="241" 
d="M70 722h101v-898h-101v898z" />
    <glyph glyph-name="braceright" unicode="}" horiz-adv-x="494" 
d="M70 721h33c62 0 108 -5 141 -24c46 -26 51 -71 51 -142v-123c0 -88 29 -123 109 -123c6 0 13 1 20 1v-102h-18c-82 0 -111 -33 -111 -122v-123c0 -71 -4 -116 -51 -142c-33 -18 -77 -24 -137 -24c-12 0 -24 1 -37 1v102c8 0 16 -1 23 -1c71 0 84 24 84 97v117
c0 88 17 127 101 146c-83 19 -101 58 -101 146v118c0 73 -13 97 -84 97c-7 0 -15 -1 -23 -1v102z" />
    <glyph glyph-name="asciitilde" unicode="~" horiz-adv-x="416" 
d="M77 535h-37c15 85 49 126 108 126c11 0 24 -2 37 -5l57 -14c9 -2 16 -4 20 -4c27 0 40 20 47 46h37c-15 -84 -51 -126 -108 -126c-10 0 -20 1 -31 4l-55 15c-13 4 -22 4 -27 4c-25 0 -41 -15 -48 -46z" />
    <glyph glyph-name="exclamdown" unicode="&#xa1;" horiz-adv-x="385" 
d="M275 286c-11 -15 -16 -29 -16 -46v-5l21 -353c3 -46 7 -76 36 -97h-247c29 21 32 51 35 97l22 353v5c0 17 -5 31 -16 46h165zM287 420c0 -53 -41 -95 -94 -95s-95 42 -95 95s43 95 95 95c53 0 94 -42 94 -95z" />
    <glyph glyph-name="cent" unicode="&#xa2;" horiz-adv-x="462" 
d="M264 258v199c-43 -13 -70 -53 -70 -102c0 -48 25 -83 70 -97zM355 99v-55c0 -14 8 -26 23 -37h-114v90c-133 21 -224 130 -224 263c0 127 90 236 224 250v49c0 14 -8 27 -23 38h114v-86c15 -3 26 -3 32 -3c11 0 22 4 35 11v-197c-19 21 -40 33 -67 38v-207
c26 6 48 17 67 36v-195c-15 5 -28 9 -39 9c-6 0 -15 -2 -28 -4z" />
    <glyph glyph-name="sterling" unicode="&#xa3;" horiz-adv-x="630" 
d="M70 284h-27c-14 0 -27 -7 -38 -22v175h65v66c0 119 95 217 209 217c32 0 60 -7 83 -7c11 0 23 3 38 8v-196c-33 29 -60 45 -89 45c-54 0 -86 -40 -86 -113c0 -7 1 -13 1 -20h55c14 0 26 8 37 23v-176h-92v-125h9c83 0 128 39 128 108c0 9 -1 23 -3 43h200
c-40 -30 -28 -95 -63 -170c-44 -92 -128 -140 -250 -140h-200c15 11 23 24 23 38v246z" />
    <glyph glyph-name="fraction" unicode="&#x2044;" horiz-adv-x="679" 
d="M679 722c-22 -25 -38 -47 -50 -67l-206 -327v-290c0 -14 8 -28 23 -38h-214c15 10 23 23 23 38v290l-208 331c-13 21 -30 41 -48 63h260c-13 -15 -20 -26 -20 -38c0 -8 3 -19 11 -34l89 -171l89 171c8 15 11 27 11 34c0 11 -7 23 -20 38h260zM190 846c0 33 30 63 64 63
c35 0 63 -28 63 -63c0 -37 -27 -64 -63 -64s-64 28 -64 64zM373 846c0 33 30 63 64 63c35 0 63 -28 63 -63c0 -37 -27 -64 -63 -64s-64 28 -64 64z" />
    <glyph glyph-name="yen" unicode="&#xa5;" horiz-adv-x="748" 
d="M434 634c8 15 11 26 11 33c0 11 -7 22 -20 37h229c-20 -22 -36 -44 -49 -65l-85 -136h107v-76h-155l-61 -99h216v-76h-222v-215c0 -14 7 -27 22 -37h-185c15 10 22 22 22 37v215h-222v76h217l-62 99h-155v76h107l-88 139c-9 14 -24 35 -46 62h229
c-12 -15 -20 -26 -20 -37c0 -7 3 -18 11 -33l99 -194z" />
    <glyph glyph-name="florin" unicode="&#x192;" horiz-adv-x="612" 
d="M70 441h143l13 70c26 142 114 215 229 215c26 0 45 -4 57 -4c7 0 17 3 30 7v-151c-24 2 -41 4 -53 4c-64 0 -95 -29 -111 -98l-10 -43h119v-155c-11 15 -23 22 -37 22h-107l-43 -235c-35 -191 -108 -281 -254 -281c-15 0 -31 1 -49 1c-11 0 -24 -4 -40 -10v161
c21 -1 41 -2 60 -2c64 0 101 31 115 98l55 268h-79c-14 0 -27 -7 -38 -22v155z" />
    <glyph glyph-name="section" unicode="&#xa7;" horiz-adv-x="528" 
d="M70 81h121c5 -51 29 -76 76 -76c45 0 70 24 70 58s-23 51 -71 75l-116 58c-72 36 -110 85 -110 145c0 57 28 101 84 130c-33 29 -48 63 -48 106c0 97 72 164 184 164c116 0 184 -63 185 -167h-115c-1 44 -26 68 -72 68c-41 0 -63 -20 -63 -51c0 -27 25 -46 89 -76l82 -39
c83 -39 122 -86 122 -150c0 -59 -30 -104 -86 -128c38 -34 57 -73 57 -122c0 -93 -72 -173 -192 -173c-124 0 -192 61 -197 178zM336 241c26 15 39 32 39 54c0 32 -21 46 -58 65l-129 66c-26 -15 -39 -35 -39 -57c0 -31 27 -47 78 -73z" />
    <glyph glyph-name="currency" unicode="&#xa4;" horiz-adv-x="682" 
d="M122 702l100 -99c33 24 71 38 119 38c45 0 85 -12 121 -38l99 99l51 -52l-99 -100c24 -34 37 -73 37 -118c0 -43 -12 -82 -37 -118l99 -100l-51 -51l-99 99c-33 -24 -72 -38 -120 -38c-46 0 -85 12 -120 38l-100 -99l-51 51l99 100c-25 35 -37 73 -37 118s13 84 37 118
l-99 100zM342 567c-74 0 -135 -62 -135 -135c0 -74 60 -134 135 -134c74 0 135 60 135 134c0 73 -61 135 -135 135z" />
    <glyph glyph-name="quotesingle" unicode="'" horiz-adv-x="234" 
d="M70 722h94v-273h-94v273z" />
    <glyph glyph-name="quotedblleft" unicode="&#x201c;" horiz-adv-x="648" 
d="M304 476h-132c7 7 9 15 9 23s-3 20 -11 35l-100 188h215c-14 -12 -19 -20 -19 -35c0 -7 0 -17 3 -30zM578 476h-133c7 7 10 15 10 23s-4 20 -12 35l-100 188h215c-14 -12 -19 -20 -19 -35c0 -7 1 -17 4 -30z" />
    <glyph glyph-name="guillemotleft" unicode="&#xab;" horiz-adv-x="516" 
d="M173 105l-103 148l103 149h101l-99 -149l99 -148h-101zM344 105l-103 148l103 149h102l-100 -149l100 -148h-102z" />
    <glyph glyph-name="guilsinglleft" unicode="&#x2039;" horiz-adv-x="345" 
d="M173 105l-103 148l103 149h102l-100 -149l100 -148h-102z" />
    <glyph glyph-name="guilsinglright" unicode="&#x203a;" horiz-adv-x="345" 
d="M172 105h-102l99 148l-99 149h102l103 -149z" />
    <glyph glyph-name="fi" unicode="&#xfb01;" horiz-adv-x="565" 
d="M59 0c15 11 23 26 23 38v332h-20c-14 0 -26 -7 -37 -22v150h55c-1 8 -1 15 -1 22c0 125 88 205 213 205c70 0 128 -25 163 -69c32 -39 30 -85 56 -117h-154c-4 36 -26 56 -59 56c-39 0 -66 -27 -66 -66v-31h275v-460c0 -14 8 -27 23 -38h-196c15 11 22 24 22 38v332h-124
v-332c0 -14 8 -27 23 -38h-196z" />
    <glyph glyph-name="fl" unicode="&#xfb02;" horiz-adv-x="566" 
d="M356 548c0 30 -24 47 -58 47c-38 0 -66 -25 -66 -60v-37h86v-150c-11 15 -24 22 -38 22h-48v-332c0 -14 8 -27 23 -38h-196c15 11 22 24 22 38v332h-19c-14 0 -26 -7 -37 -22v150h55c0 7 -1 13 -1 20c0 127 84 207 220 207c89 0 134 -33 162 -33c13 0 29 7 46 21v-675
c0 -14 8 -27 23 -38h-196c15 11 22 24 22 38v510z" />
    <glyph glyph-name="endash" unicode="&#x2013;" horiz-adv-x="640" 
d="M70 196v115h500v-115h-500z" />
    <glyph glyph-name="dagger" unicode="&#x2020;" horiz-adv-x="552" 
d="M203 -102v522h-163v93h163v209h116v-209h163v-93h-163v-522h-116z" />
    <glyph glyph-name="daggerdbl" unicode="&#x2021;" horiz-adv-x="582" 
d="M233 -101v183h-163v93h163v270h-163v92h163v185h116v-185h163v-92h-163v-270h163v-93h-163v-183h-116z" />
    <glyph glyph-name="periodcentered" unicode="&#xb7;" horiz-adv-x="378" 
d="M40 -185l23 48c45 -25 83 -39 118 -39c24 0 43 15 43 40c0 26 -15 39 -45 39c-6 0 -16 -1 -31 -3v100h37v-56c16 2 28 3 35 3c51 0 88 -34 88 -84c0 -56 -42 -91 -113 -91c-43 0 -94 16 -155 43z" />
    <glyph glyph-name="paragraph" unicode="&#xb6;" horiz-adv-x="570" 
d="M500 722v-54h-55v-668h-74v668h-78v-668h-74v383c-111 4 -179 73 -179 169c0 100 73 170 191 170h269z" />
    <glyph glyph-name="bullet" unicode="&#x2022;" horiz-adv-x="369" 
d="M40 372c0 80 65 144 145 144c79 0 144 -64 144 -144c0 -79 -65 -145 -145 -145s-144 65 -144 145z" />
    <glyph glyph-name="quotesinglbase" unicode="&#x201a;" horiz-adv-x="354" 
d="M51 -112l35 181c3 13 3 23 3 30c0 15 -5 23 -19 35h215l-100 -188c-8 -15 -11 -27 -11 -35s3 -16 10 -23h-133z" />
    <glyph glyph-name="quotedblbase" unicode="&#x201e;" horiz-adv-x="627" 
d="M50 -112l35 181c3 13 3 23 3 30c0 15 -5 23 -19 35h216l-101 -188c-8 -15 -11 -27 -11 -35s3 -16 10 -23h-133zM323 -112l35 181c3 13 4 23 4 30c0 15 -5 23 -19 35h215l-100 -188c-8 -15 -12 -27 -12 -35s3 -16 10 -23h-133z" />
    <glyph glyph-name="quotedblright" unicode="&#x201d;" horiz-adv-x="648" 
d="M70 476l35 181c3 13 3 23 3 30c0 15 -5 23 -19 35h216l-101 -188c-8 -15 -11 -27 -11 -35s3 -16 10 -23h-133zM343 476l35 181c3 13 4 23 4 30c0 15 -5 23 -19 35h215l-100 -188c-8 -15 -12 -27 -12 -35s3 -16 10 -23h-133z" />
    <glyph glyph-name="guillemotright" unicode="&#xbb;" horiz-adv-x="516" 
d="M172 105h-102l99 148l-99 149h102l103 -149zM343 105h-102l100 148l-100 149h102l103 -149z" />
    <glyph glyph-name="ellipsis" unicode="&#x2026;" horiz-adv-x="937" 
d="M40 87c0 53 42 95 95 95s95 -42 95 -95s-43 -95 -95 -95c-53 0 -95 42 -95 95zM373 87c0 53 42 95 95 95s95 -42 95 -95s-43 -95 -95 -95c-53 0 -95 42 -95 95zM707 87c0 53 42 95 95 95s95 -42 95 -95s-43 -95 -95 -95c-53 0 -95 42 -95 95z" />
    <glyph glyph-name="perthousand" unicode="&#x2030;" horiz-adv-x="1345" 
d="M942 163c0 101 79 182 182 182c101 0 181 -81 181 -182s-80 -182 -181 -182c-102 0 -182 81 -182 182zM1047 166c0 -41 33 -74 75 -74c41 0 74 32 74 74c0 41 -33 75 -74 75c-42 0 -75 -34 -75 -75zM614 166c0 -41 32 -74 74 -74c41 0 74 32 74 74c0 41 -33 75 -74 75
c-42 0 -74 -34 -74 -75zM509 163c0 101 78 182 181 182c101 0 182 -81 182 -182s-81 -182 -182 -182c-102 0 -181 81 -181 182zM145 543c0 -41 33 -74 75 -74c41 0 74 32 74 74c0 41 -33 75 -74 75c-42 0 -75 -34 -75 -75zM40 541c0 101 79 181 182 181
c101 0 181 -80 181 -181s-80 -182 -181 -182c-102 0 -182 81 -182 182zM311 13c-4 -6 -5 -12 -5 -17c0 -3 2 -9 4 -15h-113c13 13 23 28 32 44l372 667c4 6 6 11 6 16c0 2 -2 7 -6 14h111c-16 -20 -23 -32 -25 -36z" />
    <glyph glyph-name="questiondown" unicode="&#xbf;" horiz-adv-x="433" 
d="M376 420c0 -53 -42 -95 -95 -95s-95 42 -95 95s43 95 95 95c53 0 95 -42 95 -95zM362 289c-8 -11 -10 -21 -10 -35v-149c-17 7 -33 11 -50 11c-60 0 -100 -38 -100 -89s40 -87 94 -87c34 0 65 14 97 43v-207c-14 11 -26 14 -41 14c-11 0 -39 -9 -82 -9
c-139 0 -230 99 -230 239c0 128 64 209 176 225v20c0 5 -3 14 -9 24h155z" />
    <glyph glyph-name="grave" unicode="`" horiz-adv-x="402" 
d="M332 558h-46l-170 89c-30 16 -46 29 -46 54c0 27 20 48 48 48c27 0 46 -17 71 -43z" />
    <glyph glyph-name="acute" unicode="&#xb4;" horiz-adv-x="402" 
d="M70 558l143 148c25 26 44 43 71 43c28 0 48 -21 48 -48c0 -25 -16 -38 -46 -54l-170 -89h-46z" />
    <glyph glyph-name="circumflex" unicode="&#x2c6;" horiz-adv-x="450" 
d="M70 782l114 181h82l113 -181h-43l-111 91l-111 -91h-44z" />
    <glyph glyph-name="tilde" unicode="&#x2dc;" horiz-adv-x="446" 
d="M107 759h-37c15 85 49 126 108 126c11 0 24 -2 37 -5l57 -14c9 -2 16 -4 20 -4c27 0 40 20 47 46h37c-15 -84 -51 -126 -108 -126c-10 0 -20 1 -31 4l-55 15c-13 4 -22 4 -27 4c-25 0 -41 -15 -48 -46z" />
    <glyph glyph-name="macron" unicode="&#xaf;" horiz-adv-x="420" 
d="M70 558v76h280v-76h-280z" />
    <glyph glyph-name="breve" unicode="&#x2d8;" horiz-adv-x="451" 
d="M70 707h40c13 -47 47 -64 116 -64s103 17 115 64h40c-13 -97 -69 -149 -155 -149s-142 52 -156 149z" />
    <glyph glyph-name="dotaccent" unicode="&#x2d9;" horiz-adv-x="213" 
d="M40 625c0 35 32 66 66 66c36 0 67 -30 67 -66c0 -38 -29 -67 -67 -67c-36 0 -66 31 -66 67z" />
    <glyph glyph-name="dieresis" unicode="&#xa8;" horiz-adv-x="420" 
d="M40 622c0 33 30 63 64 63c35 0 63 -28 63 -63c0 -37 -27 -64 -63 -64s-64 28 -64 64zM223 622c0 33 30 63 64 63c35 0 63 -28 63 -63c0 -37 -27 -64 -63 -64s-64 28 -64 64z" />
    <glyph glyph-name="ring" unicode="&#x2da;" horiz-adv-x="330" 
d="M40 684c0 70 55 126 125 126s126 -56 126 -126c0 -71 -56 -126 -126 -126s-125 55 -125 126zM103 683c0 -35 28 -62 63 -62s62 27 62 62s-27 63 -62 63s-63 -28 -63 -63z" />
    <glyph glyph-name="emdash" unicode="&#x2014;" horiz-adv-x="1140" 
d="M70 311h1000v-115h-1000v115z" />
    <glyph glyph-name="AE" unicode="&#xc6;" horiz-adv-x="1073" 
d="M478 696c2 3 2 6 2 9c0 7 -3 11 -11 17h534v-184c-12 15 -23 23 -38 23h-203v-120h128c15 0 27 8 38 23v-205c-11 15 -23 23 -38 23h-128v-123h203c15 0 27 8 38 23v-182h-426c15 10 23 23 23 38v80h-258l-36 -66c-2 -4 -3 -10 -3 -16c0 -14 4 -24 15 -36h-249
c26 19 44 37 54 56zM600 279v282h-15l-154 -282h169z" />
    <glyph glyph-name="ordfeminine" unicode="&#xaa;" horiz-adv-x="515" 
d="M427 401c0 -10 6 -19 18 -27h-125v29c-24 -27 -57 -39 -100 -39c-101 0 -180 81 -180 182c0 107 86 188 203 188c61 0 97 -18 133 -42c21 -13 41 -27 65 -34c-9 -9 -14 -18 -14 -26v-231zM314 606c-22 20 -43 29 -67 29c-50 0 -88 -34 -88 -84s34 -85 82 -85
c27 0 50 9 73 26v114z" />
    <glyph glyph-name="Oslash" unicode="&#xd8;" horiz-adv-x="840" 
d="M249 241l277 303c-31 19 -67 30 -106 30c-114 0 -208 -95 -208 -213c0 -45 14 -86 37 -120zM595 476l-275 -301c30 -17 64 -26 100 -26c115 0 208 95 208 212c0 42 -12 82 -33 115zM712 604c56 -68 88 -154 88 -243c0 -88 -31 -173 -87 -241c-72 -88 -178 -139 -293 -139
c-79 0 -153 24 -216 68c1 0 -93 -103 -93 -103l-70 68l92 100c-59 69 -93 156 -93 247c0 101 41 197 112 268c72 72 167 112 268 112c80 0 157 -25 221 -71l99 108l70 -67z" />
    <glyph glyph-name="OE" unicode="&#x152;" horiz-adv-x="1101" 
d="M1031 0h-422c15 11 23 23 23 38v19c-47 -48 -121 -76 -213 -76c-101 0 -196 40 -268 112c-71 72 -111 167 -111 268s39 196 111 268c71 72 168 112 268 112c95 0 165 -26 213 -79v20c0 16 -8 26 -23 40h422v-184c-11 15 -23 23 -38 23h-203v-120h128c15 0 27 8 38 23
v-205c-10 15 -24 23 -38 23h-128v-123h203c15 0 27 8 38 23v-182zM210 361c0 -117 93 -210 210 -210s209 93 209 210s-92 209 -209 209s-210 -92 -210 -209z" />
    <glyph glyph-name="ordmasculine" unicode="&#xba;" horiz-adv-x="488" 
d="M40 548c0 102 90 186 204 186s204 -84 204 -186c0 -103 -91 -187 -204 -187s-204 84 -204 187zM158 548c0 -47 39 -84 86 -84c46 0 86 36 86 84c0 46 -38 83 -86 83s-86 -38 -86 -83z" />
    <glyph glyph-name="ae" unicode="&#xe6;" horiz-adv-x="914" 
d="M413 49c-48 -48 -96 -68 -162 -68c-125 0 -211 82 -211 192c0 90 86 169 194 169c31 0 63 -8 98 -22c-3 55 -35 84 -96 84c-39 0 -85 -14 -138 -37v150c14 -8 27 -12 37 -12c19 0 53 10 101 10c69 0 119 -13 173 -58c46 39 101 58 161 58c118 0 202 -53 243 -147
c30 -71 16 -131 32 -170h-372c29 -54 81 -81 158 -81c46 0 88 12 132 36v-169c-15 8 -27 14 -37 14c-14 0 -51 -17 -111 -17c-80 0 -142 20 -202 68zM334 201c-26 17 -48 27 -73 27c-44 0 -72 -25 -72 -57c0 -33 29 -60 71 -60c23 0 47 10 74 29v61zM465 303h224
c-28 59 -61 84 -115 84c-50 0 -91 -30 -109 -84z" />
    <glyph glyph-name="dotlessi" unicode="&#x131;" horiz-adv-x="291" 
d="M221 38c0 -14 7 -27 22 -38h-196c15 11 23 24 23 38v422c0 14 -8 27 -23 38h174v-460z" />
    <glyph glyph-name="oslash" unicode="&#xf8;" horiz-adv-x="624" 
d="M205 205c1 0 139 157 139 157c-10 2 -21 4 -32 4c-64 0 -114 -54 -114 -119c0 -15 3 -29 7 -42zM414 302l-146 -166c14 -6 28 -9 44 -9c62 0 115 52 115 120c0 20 -5 39 -13 55zM518 421c41 -47 66 -108 66 -174c0 -147 -121 -266 -272 -266c-53 0 -103 15 -145 41
l-70 -80l-67 63l68 77c-36 46 -58 103 -58 165c0 146 120 268 272 268c50 0 96 -13 135 -36l66 75l69 -61s-63 -72 -64 -72z" />
    <glyph glyph-name="oe" unicode="&#x153;" horiz-adv-x="1067" 
d="M199 247c0 -68 53 -122 119 -122c65 0 119 53 119 122s-54 123 -119 123c-66 0 -119 -54 -119 -123zM833 301c-26 60 -68 89 -128 89c-54 0 -99 -32 -119 -89h247zM513 61c-64 -54 -127 -80 -197 -80c-154 0 -276 120 -276 266c0 147 123 268 276 268
c76 0 140 -26 194 -79c55 53 117 79 192 79c102 0 190 -49 236 -128c42 -72 29 -144 59 -191h-402c30 -55 73 -79 139 -79c44 0 84 11 125 33v-167c-15 7 -27 10 -38 10c-25 0 -63 -12 -112 -12c-70 0 -134 26 -196 80z" />
    <glyph glyph-name="germandbls" unicode="&#xdf;" horiz-adv-x="627" 
d="M221 0h-173c15 11 22 24 22 39v422c0 172 85 263 235 263c142 0 235 -86 235 -202c0 -44 -14 -78 -44 -102c61 -32 91 -87 91 -168c0 -152 -94 -258 -238 -258h-29h-7c-19 0 -38 -1 -61 -14v170c22 -4 40 -8 57 -8c74 0 123 50 123 126c0 68 -39 110 -120 131
c51 18 76 51 76 97c0 50 -31 83 -83 83c-68 0 -84 -48 -84 -137v-442z" />
    <glyph glyph-name="logicalnot" unicode="&#xac;" horiz-adv-x="725" 
d="M70 422h585v-245h-97v149h-488v96z" />
    <glyph glyph-name="mu" unicode="&#xb5;" horiz-adv-x="749" 
d="M201 533h141l-37 -212c-12 -66 -15 -111 -15 -131c0 -61 27 -90 83 -90c70 0 99 57 121 182l44 251h141l-94 -533h-131l9 57c-27 -50 -59 -73 -105 -73c-44 0 -77 19 -104 59l-44 -257h-140z" />
    <glyph glyph-name="trademark" unicode="&#x2122;" horiz-adv-x="745" 
d="M70 722h237v-55h-82v-212h-73v212h-82v55zM361 722h96l62 -162l60 162h96v-267h-66v200l-75 -200h-30l-77 200v-200h-66v267z" />
    <glyph glyph-name="plusminus" unicode="&#xb1;" horiz-adv-x="725" 
d="M313 598h99v-159h243v-97h-243v-159h-99v159h-243v97h243v159zM70 97h585v-97h-585v97z" />
    <glyph glyph-name="divide" unicode="&#xf7;" horiz-adv-x="658" 
d="M71 -19c13 13 24 28 33 44l370 667c3 6 5 12 5 17c0 2 -2 6 -6 13h112c-15 -18 -23 -31 -26 -36l-373 -673c-3 -6 -6 -12 -6 -17c0 -3 2 -9 4 -15h-113z" />
    <glyph glyph-name="degree" unicode="&#xb0;" horiz-adv-x="376" 
d="M188 715c82 0 148 -67 148 -149c0 -81 -66 -148 -149 -148c-82 0 -147 65 -147 148s66 149 148 149zM188 652c-47 0 -86 -38 -86 -85c0 -48 38 -86 86 -86s85 40 85 86c0 47 -38 85 -85 85z" />
    <glyph glyph-name="registered" unicode="&#xae;" horiz-adv-x="443" 
d="M221 722c50 0 96 -19 131 -54c33 -34 51 -79 51 -128c0 -50 -19 -95 -53 -128c-36 -35 -82 -54 -129 -54c-48 0 -94 20 -129 56c-34 34 -52 79 -52 126c0 33 9 64 27 95c32 55 89 87 154 87zM222 692c-41 0 -77 -14 -106 -43s-46 -68 -46 -108s15 -77 44 -106
c30 -30 67 -46 107 -46s78 15 108 44c28 28 44 66 44 105c0 43 -14 80 -43 109c-29 30 -66 45 -108 45zM146 645h79c58 0 86 -20 86 -58c0 -27 -16 -47 -44 -54l45 -90h-54l-39 83h-24v-83h-49v202zM195 614v-59h24c28 0 42 9 42 29c0 21 -15 30 -44 30h-22z" />
    <glyph glyph-name="copyright" unicode="&#xa9;" horiz-adv-x="443" 
d="M221 722c50 0 95 -18 130 -53c34 -34 52 -80 52 -129c0 -50 -18 -93 -52 -127c-36 -35 -82 -55 -130 -55s-92 20 -127 55c-35 34 -54 79 -54 127s19 94 54 129c34 35 78 53 127 53zM222 692c-42 0 -79 -15 -107 -44c-29 -29 -45 -67 -45 -107c0 -41 16 -78 45 -107
s67 -45 107 -45s78 16 108 45c28 28 43 65 43 107c0 41 -15 78 -44 107s-66 44 -107 44zM309 580h-46c-2 23 -18 36 -42 36c-28 0 -47 -26 -47 -75c0 -48 17 -74 49 -74c24 0 39 14 42 40h47c-3 -45 -38 -75 -90 -75c-60 0 -98 40 -98 107c0 68 39 110 98 110
c50 0 85 -28 87 -69z" />
    <glyph glyph-name="Aacute" unicode="&#xc1;" horiz-adv-x="724" 
d="M234 119l-16 -56c-2 -8 -3 -15 -3 -22c0 -13 6 -25 15 -41h-230c18 25 29 44 34 56l242 631c3 8 4 14 4 18c0 5 -1 11 -2 17h170l242 -666c4 -10 15 -29 34 -56h-230c9 15 15 27 15 40c0 6 -2 14 -4 23l-15 56h-256zM293 275h147l-74 243zM340 782l143 148
c25 26 44 43 71 43c28 0 48 -21 48 -48c0 -25 -16 -38 -46 -54l-170 -89h-46z" />
    <glyph glyph-name="Acircumflex" unicode="&#xc2;" horiz-adv-x="724" 
d="M234 119l-16 -56c-2 -8 -3 -15 -3 -22c0 -13 6 -25 15 -41h-230c18 25 29 44 34 56l242 631c3 8 4 14 4 18c0 5 -1 11 -2 17h170l242 -666c4 -10 15 -29 34 -56h-230c9 15 15 27 15 40c0 6 -2 14 -4 23l-15 56h-256zM293 275h147l-74 243zM208 782l114 181h82l113 -181
h-43l-111 91l-111 -91h-44z" />
    <glyph glyph-name="Adieresis" unicode="&#xc4;" horiz-adv-x="724" 
d="M234 119l-16 -56c-2 -8 -3 -15 -3 -22c0 -13 6 -25 15 -41h-230c18 25 29 44 34 56l242 631c3 8 4 14 4 18c0 5 -1 11 -2 17h170l242 -666c4 -10 15 -29 34 -56h-230c9 15 15 27 15 40c0 6 -2 14 -4 23l-15 56h-256zM293 275h147l-74 243zM207 846c0 33 30 63 64 63
c35 0 63 -28 63 -63c0 -37 -27 -64 -63 -64s-64 28 -64 64zM390 846c0 33 30 63 64 63c35 0 63 -28 63 -63c0 -37 -27 -64 -63 -64s-64 28 -64 64z" />
    <glyph glyph-name="Agrave" unicode="&#xc0;" horiz-adv-x="724" 
d="M234 119l-16 -56c-2 -8 -3 -15 -3 -22c0 -13 6 -25 15 -41h-230c18 25 29 44 34 56l242 631c3 8 4 14 4 18c0 5 -1 11 -2 17h170l242 -666c4 -10 15 -29 34 -56h-230c9 15 15 27 15 40c0 6 -2 14 -4 23l-15 56h-256zM293 275h147l-74 243zM389 782h-46l-170 89
c-30 16 -46 29 -46 54c0 27 20 48 48 48c27 0 46 -17 71 -43z" />
    <glyph glyph-name="Aring" unicode="&#xc5;" horiz-adv-x="724" 
d="M234 119l-16 -56c-2 -8 -3 -15 -3 -22c0 -13 6 -25 15 -41h-230c18 25 29 44 34 56l242 631c3 8 4 14 4 18c0 5 -1 11 -2 17h170l242 -666c4 -10 15 -29 34 -56h-230c9 15 15 27 15 40c0 6 -2 14 -4 23l-15 56h-256zM293 275h147l-74 243zM235 908c0 70 55 126 125 126
s126 -56 126 -126c0 -71 -56 -126 -126 -126s-125 55 -125 126zM298 907c0 -35 28 -62 63 -62s62 27 62 62s-27 63 -62 63s-63 -28 -63 -63z" />
    <glyph glyph-name="Atilde" unicode="&#xc3;" horiz-adv-x="724" 
d="M234 119l-16 -56c-2 -8 -3 -15 -3 -22c0 -13 6 -25 15 -41h-230c18 25 29 44 34 56l242 631c3 8 4 14 4 18c0 5 -1 11 -2 17h170l242 -666c4 -10 15 -29 34 -56h-230c9 15 15 27 15 40c0 6 -2 14 -4 23l-15 56h-256zM293 275h147l-74 243zM252 758h-37
c15 85 49 126 108 126c11 0 24 -2 37 -5l57 -14c9 -2 16 -4 20 -4c27 0 40 20 47 46h37c-15 -84 -51 -126 -108 -126c-10 0 -20 1 -31 4l-55 15c-13 4 -22 4 -27 4c-25 0 -41 -15 -48 -46z" />
    <glyph glyph-name="Ccedilla" unicode="&#xc7;" horiz-adv-x="660" 
d="M398 -18c-205 13 -358 172 -358 379c0 124 51 228 147 304c66 52 143 76 233 76c55 0 96 -8 121 -8c13 0 29 2 49 9v-240c-52 47 -98 71 -159 71c-122 0 -216 -91 -216 -211c0 -123 91 -212 221 -212c62 0 106 19 154 64v-234c-17 9 -31 11 -46 11c-23 0 -60 -9 -109 -10
v-37c16 2 28 3 35 3c51 0 88 -34 88 -84c0 -56 -42 -91 -113 -91c-43 0 -94 16 -155 43l23 48c45 -25 83 -39 118 -39c24 0 43 15 43 40c0 26 -15 39 -45 39c-6 0 -16 -1 -31 -3v82z" />
    <glyph glyph-name="Eacute" unicode="&#xc9;" horiz-adv-x="549" 
d="M479 0h-432c15 11 23 23 23 38v644c0 16 -8 26 -23 40h432v-184c-11 15 -23 23 -38 23h-203v-120h128c15 0 27 8 38 23v-205c-10 15 -24 23 -38 23h-128v-123h203c15 0 27 8 38 23v-182zM261 782l143 148c25 26 44 43 71 43c28 0 48 -21 48 -48c0 -25 -16 -38 -46 -54
l-170 -89h-46z" />
    <glyph glyph-name="Ecircumflex" unicode="&#xca;" horiz-adv-x="549" 
d="M479 0h-432c15 11 23 23 23 38v644c0 16 -8 26 -23 40h432v-184c-11 15 -23 23 -38 23h-203v-120h128c15 0 27 8 38 23v-205c-10 15 -24 23 -38 23h-128v-123h203c15 0 27 8 38 23v-182zM118 782l114 181h82l113 -181h-43l-111 91l-111 -91h-44z" />
    <glyph glyph-name="Edieresis" unicode="&#xcb;" horiz-adv-x="549" 
d="M479 0h-432c15 11 23 23 23 38v644c0 16 -8 26 -23 40h432v-184c-11 15 -23 23 -38 23h-203v-120h128c15 0 27 8 38 23v-205c-10 15 -24 23 -38 23h-128v-123h203c15 0 27 8 38 23v-182zM120 846c0 33 30 63 64 63c35 0 63 -28 63 -63c0 -37 -27 -64 -63 -64
s-64 28 -64 64zM303 846c0 33 30 63 64 63c35 0 63 -28 63 -63c0 -37 -27 -64 -63 -64s-64 28 -64 64z" />
    <glyph glyph-name="Egrave" unicode="&#xc8;" horiz-adv-x="549" 
d="M479 0h-432c15 11 23 23 23 38v644c0 16 -8 26 -23 40h432v-184c-11 15 -23 23 -38 23h-203v-120h128c15 0 27 8 38 23v-205c-10 15 -24 23 -38 23h-128v-123h203c15 0 27 8 38 23v-182zM329 782h-46l-170 89c-30 16 -46 29 -46 54c0 27 20 48 48 48c27 0 46 -17 71 -43z
" />
    <glyph glyph-name="Iacute" unicode="&#xcd;" horiz-adv-x="309" 
d="M47 0c15 11 23 23 23 38v644c0 16 -8 26 -23 40h215c-15 -14 -23 -24 -23 -40v-644c0 -15 8 -27 23 -38h-215zM120 782l143 148c25 26 44 43 71 43c28 0 48 -21 48 -48c0 -25 -16 -38 -46 -54l-170 -89h-46z" />
    <glyph glyph-name="Icircumflex" unicode="&#xce;" horiz-adv-x="309" 
d="M47 0c15 11 23 23 23 38v644c0 16 -8 26 -23 40h215c-15 -14 -23 -24 -23 -40v-644c0 -15 8 -27 23 -38h-215zM-2 782l114 181h82l113 -181h-43l-111 91l-111 -91h-44z" />
    <glyph glyph-name="Idieresis" unicode="&#xcf;" horiz-adv-x="309" 
d="M47 0c15 11 23 23 23 38v644c0 16 -8 26 -23 40h215c-15 -14 -23 -24 -23 -40v-644c0 -15 8 -27 23 -38h-215zM0 846c0 33 30 63 64 63c35 0 63 -28 63 -63c0 -37 -27 -64 -63 -64s-64 28 -64 64zM183 846c0 33 30 63 64 63c35 0 63 -28 63 -63c0 -37 -27 -64 -63 -64
s-64 28 -64 64z" />
    <glyph glyph-name="Igrave" unicode="&#xcc;" horiz-adv-x="309" 
d="M47 0c15 11 23 23 23 38v644c0 16 -8 26 -23 40h215c-15 -14 -23 -24 -23 -40v-644c0 -15 8 -27 23 -38h-215zM189 782h-46l-170 89c-30 16 -46 29 -46 54c0 27 20 48 48 48c27 0 46 -17 71 -43z" />
    <glyph glyph-name="Ntilde" unicode="&#xd1;" horiz-adv-x="694" 
d="M47 0c15 10 23 23 23 38v644c0 16 -8 26 -23 40h191l169 -300c22 -40 42 -85 60 -134c-8 55 -11 110 -11 166v228c0 16 -8 26 -23 40h214c-15 -14 -23 -24 -23 -40v-644c0 -15 8 -29 23 -38h-191l-169 298c-21 38 -41 82 -60 133c8 -55 11 -110 11 -165v-228
c0 -15 8 -29 23 -38h-214zM243 759h-37c15 85 49 126 108 126c11 0 24 -2 37 -5l57 -14c9 -2 16 -4 20 -4c27 0 40 20 47 46h37c-15 -84 -51 -126 -108 -126c-10 0 -20 1 -31 4l-55 15c-13 4 -22 4 -27 4c-25 0 -41 -15 -48 -46z" />
    <glyph glyph-name="Oacute" unicode="&#xd3;" horiz-adv-x="840" 
d="M40 361c0 101 41 197 112 268c72 72 167 112 268 112s198 -40 269 -112c71 -71 111 -168 111 -268c0 -88 -31 -173 -87 -241c-72 -88 -178 -139 -293 -139c-102 0 -197 40 -268 112s-112 167 -112 268zM212 361c0 -118 94 -212 208 -212c115 0 208 95 208 212
c0 118 -93 213 -208 213c-114 0 -208 -95 -208 -213zM390 782l143 148c25 26 44 43 71 43c28 0 48 -21 48 -48c0 -25 -16 -38 -46 -54l-170 -89h-46z" />
    <glyph glyph-name="Ocircumflex" unicode="&#xd4;" horiz-adv-x="840" 
d="M40 361c0 101 41 197 112 268c72 72 167 112 268 112s198 -40 269 -112c71 -71 111 -168 111 -268c0 -88 -31 -173 -87 -241c-72 -88 -178 -139 -293 -139c-102 0 -197 40 -268 112s-112 167 -112 268zM212 361c0 -118 94 -212 208 -212c115 0 208 95 208 212
c0 118 -93 213 -208 213c-114 0 -208 -95 -208 -213zM269 782l114 181h82l113 -181h-43l-111 91l-111 -91h-44z" />
    <glyph glyph-name="Odieresis" unicode="&#xd6;" horiz-adv-x="840" 
d="M40 361c0 101 41 197 112 268c72 72 167 112 268 112s198 -40 269 -112c71 -71 111 -168 111 -268c0 -88 -31 -173 -87 -241c-72 -88 -178 -139 -293 -139c-102 0 -197 40 -268 112s-112 167 -112 268zM212 361c0 -118 94 -212 208 -212c115 0 208 95 208 212
c0 118 -93 213 -208 213c-114 0 -208 -95 -208 -213zM267 845c0 33 30 63 64 63c35 0 63 -28 63 -63c0 -37 -27 -64 -63 -64s-64 28 -64 64zM450 845c0 33 30 63 64 63c35 0 63 -28 63 -63c0 -37 -27 -64 -63 -64s-64 28 -64 64z" />
    <glyph glyph-name="Ograve" unicode="&#xd2;" horiz-adv-x="840" 
d="M40 361c0 101 41 197 112 268c72 72 167 112 268 112s198 -40 269 -112c71 -71 111 -168 111 -268c0 -88 -31 -173 -87 -241c-72 -88 -178 -139 -293 -139c-102 0 -197 40 -268 112s-112 167 -112 268zM212 361c0 -118 94 -212 208 -212c115 0 208 95 208 212
c0 118 -93 213 -208 213c-114 0 -208 -95 -208 -213zM449 782h-46l-170 89c-30 16 -46 29 -46 54c0 27 20 48 48 48c27 0 46 -17 71 -43z" />
    <glyph glyph-name="Otilde" unicode="&#xd5;" horiz-adv-x="840" 
d="M40 361c0 101 41 197 112 268c72 72 167 112 268 112s198 -40 269 -112c71 -71 111 -168 111 -268c0 -88 -31 -173 -87 -241c-72 -88 -178 -139 -293 -139c-102 0 -197 40 -268 112s-112 167 -112 268zM212 361c0 -118 94 -212 208 -212c115 0 208 95 208 212
c0 118 -93 213 -208 213c-114 0 -208 -95 -208 -213zM299 759h-37c15 85 49 126 108 126c11 0 24 -2 37 -5l57 -14c9 -2 16 -4 20 -4c27 0 40 20 47 46h37c-15 -84 -51 -126 -108 -126c-10 0 -20 1 -31 4l-55 15c-13 4 -22 4 -27 4c-25 0 -41 -15 -48 -46z" />
    <glyph glyph-name="Uacute" unicode="&#xda;" horiz-adv-x="657" 
d="M261 722c-14 -14 -23 -24 -23 -40v-414c0 -80 25 -117 88 -117c75 0 93 42 93 128v403c0 16 -8 26 -23 40h214c-15 -15 -23 -25 -23 -40v-395c0 -202 -92 -306 -258 -306c-161 0 -259 105 -259 287v414c0 16 -9 26 -23 40h214zM300 782l143 148c25 26 44 43 71 43
c28 0 48 -21 48 -48c0 -25 -16 -38 -46 -54l-170 -89h-46z" />
    <glyph glyph-name="Ucircumflex" unicode="&#xdb;" horiz-adv-x="657" 
d="M261 722c-14 -14 -23 -24 -23 -40v-414c0 -80 25 -117 88 -117c75 0 93 42 93 128v403c0 16 -8 26 -23 40h244c-15 -15 -53 -25 -53 -40v-395c0 -202 -92 -306 -258 -306c-161 0 -259 105 -259 287v414c0 16 -9 26 -23 40h214zM179 782l114 181h82l113 -181h-43l-111 91
l-111 -91h-44z" />
    <glyph glyph-name="Udieresis" unicode="&#xdc;" horiz-adv-x="657" 
d="M261 722c-14 -14 -23 -24 -23 -40v-414c0 -80 25 -117 88 -117c75 0 93 42 93 128v403c0 16 -8 26 -23 40h214c-15 -15 -23 -25 -23 -40v-395c0 -202 -92 -306 -258 -306c-161 0 -259 105 -259 287v414c0 16 -9 26 -23 40h214zM178 846c0 33 30 63 64 63
c35 0 63 -28 63 -63c0 -37 -27 -64 -63 -64s-64 28 -64 64zM361 846c0 33 30 63 64 63c35 0 63 -28 63 -63c0 -37 -27 -64 -63 -64s-64 28 -64 64z" />
    <glyph glyph-name="Ugrave" unicode="&#xd9;" horiz-adv-x="657" 
d="M261 722c-14 -14 -23 -24 -23 -40v-414c0 -80 25 -117 88 -117c75 0 93 42 93 128v403c0 16 -8 26 -23 40h214c-15 -15 -23 -25 -23 -40v-395c0 -202 -92 -306 -258 -306c-161 0 -259 105 -259 287v414c0 16 -9 26 -23 40h214zM359 782h-46l-170 89c-30 16 -46 29 -46 54
c0 27 20 48 48 48c27 0 46 -17 71 -43z" />
    <glyph glyph-name="Ydieresis" unicode="&#x178;" horiz-adv-x="679" 
d="M679 722c-22 -25 -38 -47 -50 -67l-206 -327v-290c0 -14 8 -28 23 -38h-214c15 10 23 23 23 38v290l-208 331c-13 21 -30 41 -48 63h260c-13 -15 -20 -26 -20 -38c0 -8 3 -19 11 -34l89 -171l89 171c8 15 11 27 11 34c0 11 -7 23 -20 38h260zM320 782l143 148
c25 26 44 43 71 43c28 0 48 -21 48 -48c0 -25 -16 -38 -46 -54l-170 -89h-46z" />
    <glyph glyph-name="aacute" unicode="&#xe1;" horiz-adv-x="629" 
d="M557 38c0 -14 8 -27 23 -38h-166v41c-32 -38 -76 -56 -133 -56c-135 0 -241 117 -241 261c0 152 115 269 271 269c82 0 129 -27 178 -60c28 -19 54 -39 86 -49c-12 -13 -18 -26 -18 -38v-330zM406 332c-29 28 -57 41 -90 41c-66 0 -117 -49 -117 -120s45 -121 110 -121
c35 0 66 12 97 37v163zM293 558l143 148c25 26 44 43 71 43c28 0 48 -21 48 -48c0 -25 -16 -38 -46 -54l-170 -89h-46z" />
    <glyph glyph-name="acircumflex" unicode="&#xe2;" horiz-adv-x="629" 
d="M557 38c0 -14 8 -27 23 -38h-166v41c-32 -38 -76 -56 -133 -56c-135 0 -241 117 -241 261c0 152 115 269 271 269c82 0 129 -27 178 -60c28 -19 54 -39 86 -49c-12 -13 -18 -26 -18 -38v-330zM406 332c-29 28 -57 41 -90 41c-66 0 -117 -49 -117 -120s45 -121 110 -121
c35 0 66 12 97 37v163zM158 558l114 181h82l113 -181h-43l-111 91l-111 -91h-44z" />
    <glyph glyph-name="adieresis" unicode="&#xe4;" horiz-adv-x="629" 
d="M557 38c0 -14 8 -27 23 -38h-166v41c-32 -38 -76 -56 -133 -56c-135 0 -241 117 -241 261c0 152 115 269 271 269c82 0 129 -27 178 -60c28 -19 54 -39 86 -49c-12 -13 -18 -26 -18 -38v-330zM406 332c-29 28 -57 41 -90 41c-66 0 -117 -49 -117 -120s45 -121 110 -121
c35 0 66 12 97 37v163zM147 622c0 33 30 63 64 63c35 0 63 -28 63 -63c0 -37 -27 -64 -63 -64s-64 28 -64 64zM330 622c0 33 30 63 64 63c35 0 63 -28 63 -63c0 -37 -27 -64 -63 -64s-64 28 -64 64z" />
    <glyph glyph-name="agrave" unicode="&#xe0;" horiz-adv-x="629" 
d="M557 38c0 -14 8 -27 23 -38h-166v41c-32 -38 -76 -56 -133 -56c-135 0 -241 117 -241 261c0 152 115 269 271 269c82 0 129 -27 178 -60c28 -19 54 -39 86 -49c-12 -13 -18 -26 -18 -38v-330zM406 332c-29 28 -57 41 -90 41c-66 0 -117 -49 -117 -120s45 -121 110 -121
c35 0 66 12 97 37v163zM346 558h-46l-170 89c-30 16 -46 29 -46 54c0 27 20 48 48 48c27 0 46 -17 71 -43z" />
    <glyph glyph-name="aring" unicode="&#xe5;" horiz-adv-x="629" 
d="M557 38c0 -14 8 -27 23 -38h-166v41c-32 -38 -76 -56 -133 -56c-135 0 -241 117 -241 261c0 152 115 269 271 269c82 0 129 -27 178 -60c28 -19 54 -39 86 -49c-12 -13 -18 -26 -18 -38v-330zM406 332c-29 28 -57 41 -90 41c-66 0 -117 -49 -117 -120s45 -121 110 -121
c35 0 66 12 97 37v163zM185 685c0 70 55 126 125 126s126 -56 126 -126c0 -71 -56 -126 -126 -126s-125 55 -125 126zM248 684c0 -35 28 -62 63 -62s62 27 62 62s-27 63 -62 63s-63 -28 -63 -63z" />
    <glyph glyph-name="atilde" unicode="&#xe3;" horiz-adv-x="629" 
d="M557 38c0 -14 8 -27 23 -38h-166v41c-32 -38 -76 -56 -133 -56c-135 0 -241 117 -241 261c0 152 115 269 271 269c82 0 129 -27 178 -60c28 -19 54 -39 86 -49c-12 -13 -18 -26 -18 -38v-330zM406 332c-29 28 -57 41 -90 41c-66 0 -117 -49 -117 -120s45 -121 110 -121
c35 0 66 12 97 37v163zM199 535h-37c15 85 49 126 108 126c11 0 24 -2 37 -5l57 -14c9 -2 16 -4 20 -4c27 0 40 20 47 46h37c-15 -84 -51 -126 -108 -126c-10 0 -20 1 -31 4l-55 15c-13 4 -22 4 -27 4c-25 0 -41 -15 -48 -46z" />
    <glyph glyph-name="ccedilla" unicode="&#xe7;" horiz-adv-x="465" 
d="M258 -15c-124 20 -218 122 -218 257c0 156 116 273 258 273c39 0 68 -19 89 -19c8 0 21 3 38 9v-194c-34 33 -69 49 -109 49c-69 0 -119 -48 -119 -114s51 -115 119 -115c37 0 71 16 109 46v-196c-19 7 -32 10 -40 10c-17 0 -44 -10 -82 -10h-8v-27c16 2 28 3 35 3
c51 0 88 -34 88 -84c0 -56 -42 -91 -113 -91c-43 0 -94 16 -155 43l23 48c45 -25 83 -39 118 -39c24 0 43 15 43 40c0 26 -15 39 -45 39c-6 0 -16 -1 -31 -3v75z" />
    <glyph glyph-name="eacute" unicode="&#xe9;" horiz-adv-x="638" 
d="M203 195c25 -59 66 -84 133 -84c44 0 83 11 124 35v-166c-15 6 -28 9 -43 9c-27 0 -62 -8 -103 -8c-154 0 -274 116 -274 273c0 148 112 261 278 261c83 0 149 -30 199 -93c43 -54 66 -136 66 -193c0 -2 6 -14 15 -34h-395zM434 303c-20 59 -62 89 -120 89
c-60 0 -102 -31 -121 -89h241zM283 558l143 148c25 26 44 43 71 43c28 0 48 -21 48 -48c0 -25 -16 -38 -46 -54l-170 -89h-46z" />
    <glyph glyph-name="ecircumflex" unicode="&#xea;" horiz-adv-x="638" 
d="M203 195c25 -59 66 -84 133 -84c44 0 83 11 124 35v-166c-15 6 -28 9 -43 9c-27 0 -62 -8 -103 -8c-154 0 -274 116 -274 273c0 148 112 261 278 261c83 0 149 -30 199 -93c43 -54 66 -136 66 -193c0 -2 6 -14 15 -34h-395zM434 303c-20 59 -62 89 -120 89
c-60 0 -102 -31 -121 -89h241zM159 558l114 181h82l113 -181h-43l-111 91l-111 -91h-44z" />
    <glyph glyph-name="edieresis" unicode="&#xeb;" horiz-adv-x="638" 
d="M203 195c25 -59 66 -84 133 -84c44 0 83 11 124 35v-166c-15 6 -28 9 -43 9c-27 0 -62 -8 -103 -8c-154 0 -274 116 -274 273c0 148 112 261 278 261c83 0 149 -30 199 -93c43 -54 66 -136 66 -193c0 -2 6 -14 15 -34h-395zM434 303c-20 59 -62 89 -120 89
c-60 0 -102 -31 -121 -89h241zM157 622c0 33 30 63 64 63c35 0 63 -28 63 -63c0 -37 -27 -64 -63 -64s-64 28 -64 64zM340 622c0 33 30 63 64 63c35 0 63 -28 63 -63c0 -37 -27 -64 -63 -64s-64 28 -64 64z" />
    <glyph glyph-name="egrave" unicode="&#xe8;" horiz-adv-x="638" 
d="M203 195c25 -59 66 -84 133 -84c44 0 83 11 124 35v-166c-15 6 -28 9 -43 9c-27 0 -62 -8 -103 -8c-154 0 -274 116 -274 273c0 148 112 261 278 261c83 0 149 -30 199 -93c43 -54 66 -136 66 -193c0 -2 6 -14 15 -34h-395zM434 303c-20 59 -62 89 -120 89
c-60 0 -102 -31 -121 -89h241zM346 558h-46l-170 89c-30 16 -46 29 -46 54c0 27 20 48 48 48c27 0 46 -17 71 -43z" />
    <glyph glyph-name="iacute" unicode="&#xed;" horiz-adv-x="291" 
d="M221 38c0 -14 7 -27 22 -38h-196c15 11 23 24 23 38v422c0 14 -8 27 -23 38h174v-460zM113 558l143 148c25 26 44 43 71 43c28 0 48 -21 48 -48c0 -25 -16 -38 -46 -54l-170 -89h-46z" />
    <glyph glyph-name="icircumflex" unicode="&#xee;" horiz-adv-x="291" 
d="M221 38c0 -14 7 -27 22 -38h-196c15 11 23 24 23 38v422c0 14 -8 27 -23 38h174v-460zM-12 558l114 181h82l113 -181h-43l-111 91l-111 -91h-44z" />
    <glyph glyph-name="idieresis" unicode="&#xef;" horiz-adv-x="291" 
d="M221 38c0 -14 7 -27 22 -38h-196c15 11 23 24 23 38v422c0 14 -8 27 -23 38h174v-460zM-23 622c0 33 30 63 64 63c35 0 63 -28 63 -63c0 -37 -27 -64 -63 -64s-64 28 -64 64zM160 622c0 33 30 63 64 63c35 0 63 -28 63 -63c0 -37 -27 -64 -63 -64s-64 28 -64 64z" />
    <glyph glyph-name="igrave" unicode="&#xec;" horiz-adv-x="291" 
d="M221 38c0 -14 7 -27 22 -38h-196c15 11 23 24 23 38v422c0 14 -8 27 -23 38h174v-460zM206 558h-46l-170 89c-30 16 -46 29 -46 54c0 27 20 48 48 48c27 0 46 -17 71 -43z" />
    <glyph glyph-name="ntilde" unicode="&#xf1;" horiz-adv-x="613" 
d="M47 0c15 10 23 24 23 38v333c0 12 -6 25 -18 38c27 10 48 19 64 29c43 27 88 77 199 77c146 0 228 -84 228 -243v-234c0 -14 8 -28 23 -38h-196c15 10 23 24 23 38v228c0 67 -20 106 -81 106c-34 0 -66 -14 -91 -38v-296c0 -14 7 -28 22 -38h-196zM219 535h-37
c15 85 49 126 108 126c11 0 24 -2 37 -5l57 -14c9 -2 16 -4 20 -4c27 0 40 20 47 46h37c-15 -84 -51 -126 -108 -126c-10 0 -20 1 -31 4l-55 15c-13 4 -22 4 -27 4c-25 0 -41 -15 -48 -46z" />
    <glyph glyph-name="oacute" unicode="&#xf3;" horiz-adv-x="624" 
d="M40 247c0 146 120 268 272 268s272 -122 272 -268c0 -147 -121 -266 -272 -266s-272 120 -272 266zM198 247c0 -66 52 -120 114 -120s115 52 115 120c0 67 -51 119 -115 119s-114 -54 -114 -119zM284 558l143 148c25 26 44 43 71 43c28 0 48 -21 48 -48
c0 -25 -16 -38 -46 -54l-170 -89h-46z" />
    <glyph glyph-name="ocircumflex" unicode="&#xf4;" horiz-adv-x="624" 
d="M40 247c0 146 120 268 272 268s272 -122 272 -268c0 -147 -121 -266 -272 -266s-272 120 -272 266zM198 247c0 -66 52 -120 114 -120s115 52 115 120c0 67 -51 119 -115 119s-114 -54 -114 -119zM160 558l114 181h82l113 -181h-43l-111 91l-111 -91h-44z" />
    <glyph glyph-name="odieresis" unicode="&#xf6;" horiz-adv-x="624" 
d="M40 247c0 146 120 268 272 268s272 -122 272 -268c0 -147 -121 -266 -272 -266s-272 120 -272 266zM198 247c0 -66 52 -120 114 -120s115 52 115 120c0 67 -51 119 -115 119s-114 -54 -114 -119zM167 622c0 33 30 63 64 63c35 0 63 -28 63 -63c0 -37 -27 -64 -63 -64
s-64 28 -64 64zM350 622c0 33 30 63 64 63c35 0 63 -28 63 -63c0 -37 -27 -64 -63 -64s-64 28 -64 64z" />
    <glyph glyph-name="ograve" unicode="&#xf2;" horiz-adv-x="624" 
d="M40 247c0 146 120 268 272 268s272 -122 272 -268c0 -147 -121 -266 -272 -266s-272 120 -272 266zM198 247c0 -66 52 -120 114 -120s115 52 115 120c0 67 -51 119 -115 119s-114 -54 -114 -119zM345 558h-46l-170 89c-30 16 -46 29 -46 54c0 27 20 48 48 48
c27 0 46 -17 71 -43z" />
    <glyph glyph-name="otilde" unicode="&#xf5;" horiz-adv-x="624" 
d="M40 247c0 146 120 268 272 268s272 -122 272 -268c0 -147 -121 -266 -272 -266s-272 120 -272 266zM198 247c0 -66 52 -120 114 -120s115 52 115 120c0 67 -51 119 -115 119s-114 -54 -114 -119zM189 535h-37c15 85 49 126 108 126c11 0 24 -2 37 -5l57 -14
c9 -2 16 -4 20 -4c27 0 40 20 47 46h37c-15 -84 -51 -126 -108 -126c-10 0 -20 1 -31 4l-55 15c-13 4 -22 4 -27 4c-25 0 -41 -15 -48 -46z" />
    <glyph glyph-name="uacute" unicode="&#xfa;" horiz-adv-x="593" 
d="M546 498c-15 -11 -23 -24 -23 -38v-333c0 -12 6 -24 18 -38c-28 -9 -44 -21 -56 -29c-56 -38 -93 -79 -182 -79c-143 0 -233 83 -233 245v234c0 14 -7 27 -22 38h197c-16 -11 -23 -24 -23 -38v-229c0 -61 13 -99 76 -99c27 0 51 11 72 32v296c0 14 -7 27 -22 38h198z
M283 558l143 148c25 26 44 43 71 43c28 0 48 -21 48 -48c0 -25 -16 -38 -46 -54l-170 -89h-46z" />
    <glyph glyph-name="ucircumflex" unicode="&#xfb;" horiz-adv-x="593" 
d="M546 498c-15 -11 -23 -24 -23 -38v-333c0 -12 6 -24 18 -38c-28 -9 -44 -21 -56 -29c-56 -38 -93 -79 -182 -79c-143 0 -233 83 -233 245v234c0 14 -7 27 -22 38h197c-16 -11 -23 -24 -23 -38v-229c0 -61 13 -99 76 -99c27 0 51 11 72 32v296c0 14 -7 27 -22 38h198z
M138 558l114 181h82l113 -181h-43l-111 91l-111 -91h-44z" />
    <glyph glyph-name="udieresis" unicode="&#xfc;" horiz-adv-x="593" 
d="M546 498c-15 -11 -23 -24 -23 -38v-333c0 -12 6 -24 18 -38c-28 -9 -44 -21 -56 -29c-56 -38 -93 -79 -182 -79c-143 0 -233 83 -233 245v234c0 14 -7 27 -22 38h197c-16 -11 -23 -24 -23 -38v-229c0 -61 13 -99 76 -99c27 0 51 11 72 32v296c0 14 -7 27 -22 38h198z
M147 622c0 33 30 63 64 63c35 0 63 -28 63 -63c0 -37 -27 -64 -63 -64s-64 28 -64 64zM330 622c0 33 30 63 64 63c35 0 63 -28 63 -63c0 -37 -27 -64 -63 -64s-64 28 -64 64z" />
    <glyph glyph-name="ugrave" unicode="&#xf9;" horiz-adv-x="593" 
d="M546 498c-15 -11 -23 -24 -23 -38v-333c0 -12 6 -24 18 -38c-28 -9 -44 -21 -56 -29c-56 -38 -93 -79 -182 -79c-143 0 -233 83 -233 245v234c0 14 -7 27 -22 38h197c-16 -11 -23 -24 -23 -38v-229c0 -61 13 -99 76 -99c27 0 51 11 72 32v296c0 14 -7 27 -22 38h198z
M325 558h-46l-170 89c-30 16 -46 29 -46 54c0 27 20 48 48 48c27 0 46 -17 71 -43z" />
    <glyph glyph-name="ydieresis" unicode="&#xff;" horiz-adv-x="561" 
d="M232 -163c-6 -13 -9 -23 -9 -31c0 -10 7 -22 17 -37h-208c25 32 39 53 44 63l128 269l-166 346c-9 18 -22 35 -39 51h220c-11 -12 -18 -21 -18 -33c0 -6 2 -13 5 -21l82 -201l79 203c3 8 5 15 5 20c0 10 -6 20 -16 32h205c-15 -15 -24 -30 -31 -45zM132 622
c0 33 30 63 64 63c35 0 63 -28 63 -63c0 -37 -27 -64 -63 -64s-64 28 -64 64zM315 622c0 33 30 63 64 63c35 0 63 -28 63 -63c0 -37 -27 -64 -63 -64s-64 28 -64 64z" />
    <glyph glyph-name="notequal" unicode="&#x2260;" horiz-adv-x="725" 
d="M363 564c40 0 74 -33 74 -74c0 -40 -32 -74 -74 -74c-41 0 -74 33 -74 74c0 42 34 74 74 74zM70 347h585v-97h-585v97zM363 180c40 0 74 -33 74 -74c0 -39 -33 -73 -74 -73s-74 32 -74 73c0 42 34 74 74 74z" />
    <glyph glyph-name="infinity" unicode="&#x221e;" horiz-adv-x="561" 
d="M232 -163c-6 -13 -9 -23 -9 -31c0 -10 7 -22 17 -37h-208c25 32 39 53 44 63l128 269l-166 346c-9 18 -22 35 -39 51h220c-11 -12 -18 -21 -18 -33c0 -6 2 -13 5 -21l82 -201l79 203c3 8 5 15 5 20c0 10 -6 20 -16 32h205c-15 -15 -24 -30 -31 -45zM278 558l143 148
c25 26 44 43 71 43c28 0 48 -21 48 -48c0 -25 -16 -38 -46 -54l-170 -89h-46z" />
    <glyph glyph-name="lessequal" unicode="&#x2264;" horiz-adv-x="486" 
d="M40 467h116v-19c0 -46 35 -76 76 -76c43 0 74 33 74 74c0 35 -27 64 -77 75c33 6 52 25 52 50c0 26 -22 44 -49 44s-47 -18 -47 -45c0 -5 1 -11 2 -18h-112c24 19 15 55 33 89c24 46 70 73 126 73c83 0 144 -59 144 -126c0 -17 -6 -33 -15 -50c36 -25 53 -57 53 -99
c0 -92 -78 -169 -183 -169c-68 0 -131 34 -160 86c-23 43 -15 84 -33 111z" />
    <glyph glyph-name="greaterequal" unicode="&#x2265;" horiz-adv-x="478" 
d="M407 281h-367l226 235c18 19 30 33 30 53c0 29 -26 52 -59 52c-36 0 -61 -24 -61 -56c0 -8 3 -16 6 -25h-130c19 19 12 52 27 89c22 55 78 86 156 86c103 0 173 -63 173 -151c0 -37 -18 -74 -52 -107l-86 -82h112c10 0 18 4 25 13v-107z" />
    <glyph glyph-name="partialdiff" unicode="&#x2202;" horiz-adv-x="1001" 
d="M279 330c0 -8 5 -15 14 -21h-123c9 6 14 13 14 21v222l-41 -45l-74 51c9 3 15 6 18 9l119 137h87c-9 -6 -14 -14 -14 -21v-353zM231 -19c13 13 24 28 33 44l370 667c3 6 5 12 5 17c0 2 -2 6 -6 13h112c-15 -18 -23 -31 -26 -36l-373 -673c-3 -6 -6 -12 -6 -17
c0 -3 2 -9 4 -15h-113zM930 0h-350l216 220c17 17 28 30 28 49c0 27 -25 49 -57 49c-34 0 -58 -23 -58 -53c0 -7 3 -15 7 -24h-125c18 18 12 50 26 84c21 51 75 80 148 80c99 0 166 -58 166 -141c0 -34 -18 -68 -50 -99l-82 -78h107c9 0 17 5 24 13v-100z" />
    <glyph glyph-name="summation" unicode="&#x2211;" horiz-adv-x="1009" 
d="M279 330c0 -8 5 -15 14 -21h-123c9 6 14 13 14 21v222l-41 -45l-74 51c9 3 15 6 18 9l119 137h87c-9 -6 -14 -14 -14 -21v-353zM231 -19c13 13 24 28 33 44l370 667c3 6 5 12 5 17c0 2 -2 6 -6 13h112c-15 -18 -23 -31 -26 -36l-373 -673c-3 -6 -6 -12 -6 -17
c0 -3 2 -9 4 -15h-113zM884 21c0 -8 5 -15 14 -21h-123c9 6 14 13 14 21v52h-151l-62 69c9 4 16 7 18 10l217 243h87c-9 -6 -14 -14 -14 -21v-218h31c9 0 17 4 24 13v-96h-55v-52zM792 155v108l-90 -108h90z" />
    <glyph glyph-name="pi" unicode="&#x3c0;" horiz-adv-x="373" 
d="M289 304c0 -9 5 -16 15 -23h-130c10 7 15 14 15 23v237l-43 -48l-77 54c9 4 15 8 18 11l125 146h92c-10 -7 -15 -14 -15 -23v-377z" />
    <glyph glyph-name="integral" unicode="&#x222b;" horiz-adv-x="1032" 
d="M39 483h112c-1 -10 -1 -16 -1 -18c0 -43 34 -71 73 -71c41 0 71 30 71 69c0 32 -27 59 -74 70c32 6 49 24 49 47c0 24 -20 41 -46 41s-44 -17 -44 -42c0 -5 0 -11 1 -17h-107c23 17 16 52 32 83c23 43 66 68 120 68c79 0 137 -55 137 -117c0 -17 -5 -31 -14 -47
c35 -23 51 -53 51 -92c0 -86 -75 -158 -175 -158c-65 0 -125 31 -153 80c-22 40 -14 78 -32 104zM254 -19c13 13 24 28 33 44l370 667c3 6 5 12 5 17c0 2 -2 6 -6 13h112c-15 -18 -23 -31 -26 -36l-373 -673c-3 -6 -6 -12 -6 -17c0 -3 2 -9 4 -15h-113zM907 21
c0 -8 5 -15 14 -21h-123c9 6 14 13 14 21v52h-151l-62 69c9 4 16 7 18 10l217 243h87c-9 -6 -14 -14 -14 -21v-218h31c9 0 17 4 24 13v-96h-55v-52zM815 155v108l-90 -108h90z" />
    <glyph glyph-name="radical" unicode="&#x221a;" horiz-adv-x="448" 
d="M69 739h44l111 -91l111 91h43l-113 -181h-82z" />
    <glyph glyph-name="Delta" unicode="&#x2206;" horiz-adv-x="270" 
d="M40 352c0 53 42 95 95 95s95 -42 95 -95s-43 -95 -95 -95c-53 0 -95 42 -95 95z" />
    <glyph glyph-name="nbspace" unicode="&#xa0;" horiz-adv-x="500" 
 />
  </font>
</defs>
</svg>
